<?xml version="1.0" encoding="utf-8" standalone="no"?>
<!DOCTYPE svg PUBLIC "-//W3C//DTD SVG 1.1//EN"
  "http://www.w3.org/Graphics/SVG/1.1/DTD/svg11.dtd">
<svg xmlns:xlink="http://www.w3.org/1999/xlink" width="495.774688pt" height="352.457305pt" viewBox="0 0 495.774688 352.457305" xmlns="http://www.w3.org/2000/svg" version="1.1">
 <metadata>
  <rdf:RDF xmlns:dc="http://purl.org/dc/elements/1.1/" xmlns:cc="http://creativecommons.org/ns#" xmlns:rdf="http://www.w3.org/1999/02/22-rdf-syntax-ns#">
   <cc:Work>
    <dc:type rdf:resource="http://purl.org/dc/dcmitype/StillImage"/>
    <dc:date>2026-06-14T17:19:56.324035</dc:date>
    <dc:format>image/svg+xml</dc:format>
    <dc:creator>
     <cc:Agent>
      <dc:title>Matplotlib v3.11.0, https://matplotlib.org/</dc:title>
     </cc:Agent>
    </dc:creator>
   </cc:Work>
  </rdf:RDF>
 </metadata>
 <defs>
  <style type="text/css">*{stroke-linejoin: round; stroke-linecap: butt}</style>
 </defs>
 <g id="figure_1">
  <g id="patch_1">
   <path d="M 0 352.457305 
L 495.774688 352.457305 
L 495.774688 0 
L 0 0 
z
" style="fill: #09090b"/>
  </g>
  <g id="axes_1">
   <g id="patch_2">
    <path d="M 39.017031 315.756523 
L 488.574687 315.756523 
L 488.574687 21.558281 
L 39.017031 21.558281 
z
" style="fill: #09090b"/>
   </g>
   <g id="PathCollection_1">
    <defs>
     <path id="m8233c1d0fc" d="M 0 2.738613 
C 0.726289 2.738613 1.422928 2.450055 1.936492 1.936492 
C 2.450055 1.422928 2.738613 0.726289 2.738613 0 
C 2.738613 -0.726289 2.450055 -1.422928 1.936492 -1.936492 
C 1.422928 -2.450055 0.726289 -2.738613 0 -2.738613 
C -0.726289 -2.738613 -1.422928 -2.450055 -1.936492 -1.936492 
C -2.450055 -1.422928 -2.738613 -0.726289 -2.738613 0 
C -2.738613 0.726289 -2.450055 1.422928 -1.936492 1.936492 
C -1.422928 2.450055 -0.726289 2.738613 0 2.738613 
z
" style="stroke: #916f6f; stroke-opacity: 0.55; stroke-width: 0.6"/>
    </defs>
    <g clip-path="url(#p2026ed3191)">
     <use xlink:href="#m8233c1d0fc" x="468.140249" y="302.383876" style="fill: #916f6f; fill-opacity: 0.55; stroke: #916f6f; stroke-opacity: 0.55; stroke-width: 0.6"/>
     <use xlink:href="#m8233c1d0fc" x="263.795859" y="34.930929" style="fill: #916f6f; fill-opacity: 0.55; stroke: #916f6f; stroke-opacity: 0.55; stroke-width: 0.6"/>
     <use xlink:href="#m8233c1d0fc" x="468.140249" y="34.930929" style="fill: #916f6f; fill-opacity: 0.55; stroke: #916f6f; stroke-opacity: 0.55; stroke-width: 0.6"/>
     <use xlink:href="#m8233c1d0fc" x="468.140249" y="34.930929" style="fill: #916f6f; fill-opacity: 0.55; stroke: #916f6f; stroke-opacity: 0.55; stroke-width: 0.6"/>
     <use xlink:href="#m8233c1d0fc" x="284.230298" y="34.930929" style="fill: #916f6f; fill-opacity: 0.55; stroke: #916f6f; stroke-opacity: 0.55; stroke-width: 0.6"/>
     <use xlink:href="#m8233c1d0fc" x="468.140249" y="275.638581" style="fill: #916f6f; fill-opacity: 0.55; stroke: #916f6f; stroke-opacity: 0.55; stroke-width: 0.6"/>
     <use xlink:href="#m8233c1d0fc" x="100.320348" y="34.930929" style="fill: #916f6f; fill-opacity: 0.55; stroke: #916f6f; stroke-opacity: 0.55; stroke-width: 0.6"/>
     <use xlink:href="#m8233c1d0fc" x="468.140249" y="275.638581" style="fill: #916f6f; fill-opacity: 0.55; stroke: #916f6f; stroke-opacity: 0.55; stroke-width: 0.6"/>
     <use xlink:href="#m8233c1d0fc" x="100.320348" y="302.383876" style="fill: #916f6f; fill-opacity: 0.55; stroke: #916f6f; stroke-opacity: 0.55; stroke-width: 0.6"/>
     <use xlink:href="#m8233c1d0fc" x="79.885909" y="275.638581" style="fill: #916f6f; fill-opacity: 0.55; stroke: #916f6f; stroke-opacity: 0.55; stroke-width: 0.6"/>
     <use xlink:href="#m8233c1d0fc" x="284.230298" y="275.638581" style="fill: #916f6f; fill-opacity: 0.55; stroke: #916f6f; stroke-opacity: 0.55; stroke-width: 0.6"/>
     <use xlink:href="#m8233c1d0fc" x="284.230298" y="34.930929" style="fill: #916f6f; fill-opacity: 0.55; stroke: #916f6f; stroke-opacity: 0.55; stroke-width: 0.6"/>
     <use xlink:href="#m8233c1d0fc" x="468.140249" y="34.930929" style="fill: #916f6f; fill-opacity: 0.55; stroke: #916f6f; stroke-opacity: 0.55; stroke-width: 0.6"/>
     <use xlink:href="#m8233c1d0fc" x="468.140249" y="34.930929" style="fill: #916f6f; fill-opacity: 0.55; stroke: #916f6f; stroke-opacity: 0.55; stroke-width: 0.6"/>
     <use xlink:href="#m8233c1d0fc" x="468.140249" y="34.930929" style="fill: #916f6f; fill-opacity: 0.55; stroke: #916f6f; stroke-opacity: 0.55; stroke-width: 0.6"/>
     <use xlink:href="#m8233c1d0fc" x="468.140249" y="34.930929" style="fill: #916f6f; fill-opacity: 0.55; stroke: #916f6f; stroke-opacity: 0.55; stroke-width: 0.6"/>
     <use xlink:href="#m8233c1d0fc" x="468.140249" y="34.930929" style="fill: #916f6f; fill-opacity: 0.55; stroke: #916f6f; stroke-opacity: 0.55; stroke-width: 0.6"/>
     <use xlink:href="#m8233c1d0fc" x="468.140249" y="34.930929" style="fill: #916f6f; fill-opacity: 0.55; stroke: #916f6f; stroke-opacity: 0.55; stroke-width: 0.6"/>
     <use xlink:href="#m8233c1d0fc" x="468.140249" y="34.930929" style="fill: #916f6f; fill-opacity: 0.55; stroke: #916f6f; stroke-opacity: 0.55; stroke-width: 0.6"/>
     <use xlink:href="#m8233c1d0fc" x="468.140249" y="302.383876" style="fill: #916f6f; fill-opacity: 0.55; stroke: #916f6f; stroke-opacity: 0.55; stroke-width: 0.6"/>
     <use xlink:href="#m8233c1d0fc" x="331.910656" y="34.930929" style="fill: #916f6f; fill-opacity: 0.55; stroke: #916f6f; stroke-opacity: 0.55; stroke-width: 0.6"/>
     <use xlink:href="#m8233c1d0fc" x="468.140249" y="34.930929" style="fill: #916f6f; fill-opacity: 0.55; stroke: #916f6f; stroke-opacity: 0.55; stroke-width: 0.6"/>
     <use xlink:href="#m8233c1d0fc" x="345.533615" y="34.930929" style="fill: #916f6f; fill-opacity: 0.55; stroke: #916f6f; stroke-opacity: 0.55; stroke-width: 0.6"/>
     <use xlink:href="#m8233c1d0fc" x="468.140249" y="34.930929" style="fill: #916f6f; fill-opacity: 0.55; stroke: #916f6f; stroke-opacity: 0.55; stroke-width: 0.6"/>
     <use xlink:href="#m8233c1d0fc" x="468.140249" y="34.930929" style="fill: #916f6f; fill-opacity: 0.55; stroke: #916f6f; stroke-opacity: 0.55; stroke-width: 0.6"/>
     <use xlink:href="#m8233c1d0fc" x="345.533615" y="34.930929" style="fill: #916f6f; fill-opacity: 0.55; stroke: #916f6f; stroke-opacity: 0.55; stroke-width: 0.6"/>
     <use xlink:href="#m8233c1d0fc" x="468.140249" y="275.638581" style="fill: #916f6f; fill-opacity: 0.55; stroke: #916f6f; stroke-opacity: 0.55; stroke-width: 0.6"/>
     <use xlink:href="#m8233c1d0fc" x="468.140249" y="34.930929" style="fill: #916f6f; fill-opacity: 0.55; stroke: #916f6f; stroke-opacity: 0.55; stroke-width: 0.6"/>
     <use xlink:href="#m8233c1d0fc" x="468.140249" y="34.930929" style="fill: #916f6f; fill-opacity: 0.55; stroke: #916f6f; stroke-opacity: 0.55; stroke-width: 0.6"/>
     <use xlink:href="#m8233c1d0fc" x="468.140249" y="34.930929" style="fill: #916f6f; fill-opacity: 0.55; stroke: #916f6f; stroke-opacity: 0.55; stroke-width: 0.6"/>
     <use xlink:href="#m8233c1d0fc" x="468.140249" y="34.930929" style="fill: #916f6f; fill-opacity: 0.55; stroke: #916f6f; stroke-opacity: 0.55; stroke-width: 0.6"/>
     <use xlink:href="#m8233c1d0fc" x="468.140249" y="34.930929" style="fill: #916f6f; fill-opacity: 0.55; stroke: #916f6f; stroke-opacity: 0.55; stroke-width: 0.6"/>
     <use xlink:href="#m8233c1d0fc" x="468.140249" y="34.930929" style="fill: #916f6f; fill-opacity: 0.55; stroke: #916f6f; stroke-opacity: 0.55; stroke-width: 0.6"/>
     <use xlink:href="#m8233c1d0fc" x="468.140249" y="275.638581" style="fill: #916f6f; fill-opacity: 0.55; stroke: #916f6f; stroke-opacity: 0.55; stroke-width: 0.6"/>
     <use xlink:href="#m8233c1d0fc" x="468.140249" y="302.383876" style="fill: #916f6f; fill-opacity: 0.55; stroke: #916f6f; stroke-opacity: 0.55; stroke-width: 0.6"/>
     <use xlink:href="#m8233c1d0fc" x="263.795859" y="34.930929" style="fill: #916f6f; fill-opacity: 0.55; stroke: #916f6f; stroke-opacity: 0.55; stroke-width: 0.6"/>
     <use xlink:href="#m8233c1d0fc" x="468.140249" y="34.930929" style="fill: #916f6f; fill-opacity: 0.55; stroke: #916f6f; stroke-opacity: 0.55; stroke-width: 0.6"/>
     <use xlink:href="#m8233c1d0fc" x="468.140249" y="34.930929" style="fill: #916f6f; fill-opacity: 0.55; stroke: #916f6f; stroke-opacity: 0.55; stroke-width: 0.6"/>
     <use xlink:href="#m8233c1d0fc" x="468.140249" y="34.930929" style="fill: #916f6f; fill-opacity: 0.55; stroke: #916f6f; stroke-opacity: 0.55; stroke-width: 0.6"/>
     <use xlink:href="#m8233c1d0fc" x="468.140249" y="34.930929" style="fill: #916f6f; fill-opacity: 0.55; stroke: #916f6f; stroke-opacity: 0.55; stroke-width: 0.6"/>
     <use xlink:href="#m8233c1d0fc" x="468.140249" y="34.930929" style="fill: #916f6f; fill-opacity: 0.55; stroke: #916f6f; stroke-opacity: 0.55; stroke-width: 0.6"/>
     <use xlink:href="#m8233c1d0fc" x="468.140249" y="34.930929" style="fill: #916f6f; fill-opacity: 0.55; stroke: #916f6f; stroke-opacity: 0.55; stroke-width: 0.6"/>
     <use xlink:href="#m8233c1d0fc" x="468.140249" y="34.930929" style="fill: #916f6f; fill-opacity: 0.55; stroke: #916f6f; stroke-opacity: 0.55; stroke-width: 0.6"/>
     <use xlink:href="#m8233c1d0fc" x="468.140249" y="34.930929" style="fill: #916f6f; fill-opacity: 0.55; stroke: #916f6f; stroke-opacity: 0.55; stroke-width: 0.6"/>
     <use xlink:href="#m8233c1d0fc" x="284.230298" y="34.930929" style="fill: #916f6f; fill-opacity: 0.55; stroke: #916f6f; stroke-opacity: 0.55; stroke-width: 0.6"/>
     <use xlink:href="#m8233c1d0fc" x="468.140249" y="275.638581" style="fill: #916f6f; fill-opacity: 0.55; stroke: #916f6f; stroke-opacity: 0.55; stroke-width: 0.6"/>
     <use xlink:href="#m8233c1d0fc" x="284.230298" y="34.930929" style="fill: #916f6f; fill-opacity: 0.55; stroke: #916f6f; stroke-opacity: 0.55; stroke-width: 0.6"/>
     <use xlink:href="#m8233c1d0fc" x="468.140249" y="275.638581" style="fill: #916f6f; fill-opacity: 0.55; stroke: #916f6f; stroke-opacity: 0.55; stroke-width: 0.6"/>
     <use xlink:href="#m8233c1d0fc" x="284.230298" y="34.930929" style="fill: #916f6f; fill-opacity: 0.55; stroke: #916f6f; stroke-opacity: 0.55; stroke-width: 0.6"/>
     <use xlink:href="#m8233c1d0fc" x="468.140249" y="34.930929" style="fill: #916f6f; fill-opacity: 0.55; stroke: #916f6f; stroke-opacity: 0.55; stroke-width: 0.6"/>
     <use xlink:href="#m8233c1d0fc" x="468.140249" y="34.930929" style="fill: #916f6f; fill-opacity: 0.55; stroke: #916f6f; stroke-opacity: 0.55; stroke-width: 0.6"/>
     <use xlink:href="#m8233c1d0fc" x="59.45147" y="302.383876" style="fill: #916f6f; fill-opacity: 0.55; stroke: #916f6f; stroke-opacity: 0.55; stroke-width: 0.6"/>
     <use xlink:href="#m8233c1d0fc" x="59.45147" y="302.383876" style="fill: #916f6f; fill-opacity: 0.55; stroke: #916f6f; stroke-opacity: 0.55; stroke-width: 0.6"/>
     <use xlink:href="#m8233c1d0fc" x="59.45147" y="302.383876" style="fill: #916f6f; fill-opacity: 0.55; stroke: #916f6f; stroke-opacity: 0.55; stroke-width: 0.6"/>
     <use xlink:href="#m8233c1d0fc" x="59.45147" y="302.383876" style="fill: #916f6f; fill-opacity: 0.55; stroke: #916f6f; stroke-opacity: 0.55; stroke-width: 0.6"/>
     <use xlink:href="#m8233c1d0fc" x="59.45147" y="302.383876" style="fill: #916f6f; fill-opacity: 0.55; stroke: #916f6f; stroke-opacity: 0.55; stroke-width: 0.6"/>
     <use xlink:href="#m8233c1d0fc" x="59.45147" y="302.383876" style="fill: #916f6f; fill-opacity: 0.55; stroke: #916f6f; stroke-opacity: 0.55; stroke-width: 0.6"/>
     <use xlink:href="#m8233c1d0fc" x="331.910656" y="302.383876" style="fill: #916f6f; fill-opacity: 0.55; stroke: #916f6f; stroke-opacity: 0.55; stroke-width: 0.6"/>
     <use xlink:href="#m8233c1d0fc" x="59.45147" y="34.930929" style="fill: #916f6f; fill-opacity: 0.55; stroke: #916f6f; stroke-opacity: 0.55; stroke-width: 0.6"/>
     <use xlink:href="#m8233c1d0fc" x="195.681063" y="302.383876" style="fill: #916f6f; fill-opacity: 0.55; stroke: #916f6f; stroke-opacity: 0.55; stroke-width: 0.6"/>
     <use xlink:href="#m8233c1d0fc" x="59.45147" y="302.383876" style="fill: #916f6f; fill-opacity: 0.55; stroke: #916f6f; stroke-opacity: 0.55; stroke-width: 0.6"/>
     <use xlink:href="#m8233c1d0fc" x="59.45147" y="302.383876" style="fill: #916f6f; fill-opacity: 0.55; stroke: #916f6f; stroke-opacity: 0.55; stroke-width: 0.6"/>
     <use xlink:href="#m8233c1d0fc" x="59.45147" y="302.383876" style="fill: #916f6f; fill-opacity: 0.55; stroke: #916f6f; stroke-opacity: 0.55; stroke-width: 0.6"/>
     <use xlink:href="#m8233c1d0fc" x="263.795859" y="302.383876" style="fill: #916f6f; fill-opacity: 0.55; stroke: #916f6f; stroke-opacity: 0.55; stroke-width: 0.6"/>
     <use xlink:href="#m8233c1d0fc" x="59.45147" y="34.930929" style="fill: #916f6f; fill-opacity: 0.55; stroke: #916f6f; stroke-opacity: 0.55; stroke-width: 0.6"/>
     <use xlink:href="#m8233c1d0fc" x="263.795859" y="302.383876" style="fill: #916f6f; fill-opacity: 0.55; stroke: #916f6f; stroke-opacity: 0.55; stroke-width: 0.6"/>
     <use xlink:href="#m8233c1d0fc" x="59.45147" y="302.383876" style="fill: #916f6f; fill-opacity: 0.55; stroke: #916f6f; stroke-opacity: 0.55; stroke-width: 0.6"/>
     <use xlink:href="#m8233c1d0fc" x="195.681063" y="302.383876" style="fill: #916f6f; fill-opacity: 0.55; stroke: #916f6f; stroke-opacity: 0.55; stroke-width: 0.6"/>
     <use xlink:href="#m8233c1d0fc" x="59.45147" y="34.930929" style="fill: #916f6f; fill-opacity: 0.55; stroke: #916f6f; stroke-opacity: 0.55; stroke-width: 0.6"/>
     <use xlink:href="#m8233c1d0fc" x="468.140249" y="302.383876" style="fill: #916f6f; fill-opacity: 0.55; stroke: #916f6f; stroke-opacity: 0.55; stroke-width: 0.6"/>
     <use xlink:href="#m8233c1d0fc" x="59.45147" y="302.383876" style="fill: #916f6f; fill-opacity: 0.55; stroke: #916f6f; stroke-opacity: 0.55; stroke-width: 0.6"/>
     <use xlink:href="#m8233c1d0fc" x="59.45147" y="34.930929" style="fill: #916f6f; fill-opacity: 0.55; stroke: #916f6f; stroke-opacity: 0.55; stroke-width: 0.6"/>
     <use xlink:href="#m8233c1d0fc" x="468.140249" y="302.383876" style="fill: #916f6f; fill-opacity: 0.55; stroke: #916f6f; stroke-opacity: 0.55; stroke-width: 0.6"/>
     <use xlink:href="#m8233c1d0fc" x="59.45147" y="302.383876" style="fill: #916f6f; fill-opacity: 0.55; stroke: #916f6f; stroke-opacity: 0.55; stroke-width: 0.6"/>
     <use xlink:href="#m8233c1d0fc" x="59.45147" y="302.383876" style="fill: #916f6f; fill-opacity: 0.55; stroke: #916f6f; stroke-opacity: 0.55; stroke-width: 0.6"/>
     <use xlink:href="#m8233c1d0fc" x="59.45147" y="302.383876" style="fill: #916f6f; fill-opacity: 0.55; stroke: #916f6f; stroke-opacity: 0.55; stroke-width: 0.6"/>
     <use xlink:href="#m8233c1d0fc" x="59.45147" y="302.383876" style="fill: #916f6f; fill-opacity: 0.55; stroke: #916f6f; stroke-opacity: 0.55; stroke-width: 0.6"/>
     <use xlink:href="#m8233c1d0fc" x="468.140249" y="302.383876" style="fill: #916f6f; fill-opacity: 0.55; stroke: #916f6f; stroke-opacity: 0.55; stroke-width: 0.6"/>
     <use xlink:href="#m8233c1d0fc" x="263.795859" y="34.930929" style="fill: #916f6f; fill-opacity: 0.55; stroke: #916f6f; stroke-opacity: 0.55; stroke-width: 0.6"/>
     <use xlink:href="#m8233c1d0fc" x="468.140249" y="34.930929" style="fill: #916f6f; fill-opacity: 0.55; stroke: #916f6f; stroke-opacity: 0.55; stroke-width: 0.6"/>
     <use xlink:href="#m8233c1d0fc" x="468.140249" y="34.930929" style="fill: #916f6f; fill-opacity: 0.55; stroke: #916f6f; stroke-opacity: 0.55; stroke-width: 0.6"/>
     <use xlink:href="#m8233c1d0fc" x="468.140249" y="34.930929" style="fill: #916f6f; fill-opacity: 0.55; stroke: #916f6f; stroke-opacity: 0.55; stroke-width: 0.6"/>
     <use xlink:href="#m8233c1d0fc" x="468.140249" y="34.930929" style="fill: #916f6f; fill-opacity: 0.55; stroke: #916f6f; stroke-opacity: 0.55; stroke-width: 0.6"/>
     <use xlink:href="#m8233c1d0fc" x="468.140249" y="34.930929" style="fill: #916f6f; fill-opacity: 0.55; stroke: #916f6f; stroke-opacity: 0.55; stroke-width: 0.6"/>
     <use xlink:href="#m8233c1d0fc" x="468.140249" y="34.930929" style="fill: #916f6f; fill-opacity: 0.55; stroke: #916f6f; stroke-opacity: 0.55; stroke-width: 0.6"/>
     <use xlink:href="#m8233c1d0fc" x="468.140249" y="34.930929" style="fill: #916f6f; fill-opacity: 0.55; stroke: #916f6f; stroke-opacity: 0.55; stroke-width: 0.6"/>
     <use xlink:href="#m8233c1d0fc" x="468.140249" y="34.930929" style="fill: #916f6f; fill-opacity: 0.55; stroke: #916f6f; stroke-opacity: 0.55; stroke-width: 0.6"/>
     <use xlink:href="#m8233c1d0fc" x="468.140249" y="34.930929" style="fill: #916f6f; fill-opacity: 0.55; stroke: #916f6f; stroke-opacity: 0.55; stroke-width: 0.6"/>
     <use xlink:href="#m8233c1d0fc" x="468.140249" y="34.930929" style="fill: #916f6f; fill-opacity: 0.55; stroke: #916f6f; stroke-opacity: 0.55; stroke-width: 0.6"/>
     <use xlink:href="#m8233c1d0fc" x="468.140249" y="34.930929" style="fill: #916f6f; fill-opacity: 0.55; stroke: #916f6f; stroke-opacity: 0.55; stroke-width: 0.6"/>
     <use xlink:href="#m8233c1d0fc" x="468.140249" y="34.930929" style="fill: #916f6f; fill-opacity: 0.55; stroke: #916f6f; stroke-opacity: 0.55; stroke-width: 0.6"/>
     <use xlink:href="#m8233c1d0fc" x="468.140249" y="34.930929" style="fill: #916f6f; fill-opacity: 0.55; stroke: #916f6f; stroke-opacity: 0.55; stroke-width: 0.6"/>
     <use xlink:href="#m8233c1d0fc" x="468.140249" y="34.930929" style="fill: #916f6f; fill-opacity: 0.55; stroke: #916f6f; stroke-opacity: 0.55; stroke-width: 0.6"/>
     <use xlink:href="#m8233c1d0fc" x="468.140249" y="34.930929" style="fill: #916f6f; fill-opacity: 0.55; stroke: #916f6f; stroke-opacity: 0.55; stroke-width: 0.6"/>
     <use xlink:href="#m8233c1d0fc" x="468.140249" y="34.930929" style="fill: #916f6f; fill-opacity: 0.55; stroke: #916f6f; stroke-opacity: 0.55; stroke-width: 0.6"/>
     <use xlink:href="#m8233c1d0fc" x="468.140249" y="34.930929" style="fill: #916f6f; fill-opacity: 0.55; stroke: #916f6f; stroke-opacity: 0.55; stroke-width: 0.6"/>
     <use xlink:href="#m8233c1d0fc" x="468.140249" y="34.930929" style="fill: #916f6f; fill-opacity: 0.55; stroke: #916f6f; stroke-opacity: 0.55; stroke-width: 0.6"/>
     <use xlink:href="#m8233c1d0fc" x="468.140249" y="34.930929" style="fill: #916f6f; fill-opacity: 0.55; stroke: #916f6f; stroke-opacity: 0.55; stroke-width: 0.6"/>
     <use xlink:href="#m8233c1d0fc" x="345.533615" y="34.930929" style="fill: #916f6f; fill-opacity: 0.55; stroke: #916f6f; stroke-opacity: 0.55; stroke-width: 0.6"/>
     <use xlink:href="#m8233c1d0fc" x="468.140249" y="34.930929" style="fill: #916f6f; fill-opacity: 0.55; stroke: #916f6f; stroke-opacity: 0.55; stroke-width: 0.6"/>
     <use xlink:href="#m8233c1d0fc" x="284.230298" y="275.638581" style="fill: #916f6f; fill-opacity: 0.55; stroke: #916f6f; stroke-opacity: 0.55; stroke-width: 0.6"/>
     <use xlink:href="#m8233c1d0fc" x="100.320348" y="275.638581" style="fill: #916f6f; fill-opacity: 0.55; stroke: #916f6f; stroke-opacity: 0.55; stroke-width: 0.6"/>
     <use xlink:href="#m8233c1d0fc" x="468.140249" y="34.930929" style="fill: #916f6f; fill-opacity: 0.55; stroke: #916f6f; stroke-opacity: 0.55; stroke-width: 0.6"/>
     <use xlink:href="#m8233c1d0fc" x="59.45147" y="302.383876" style="fill: #916f6f; fill-opacity: 0.55; stroke: #916f6f; stroke-opacity: 0.55; stroke-width: 0.6"/>
     <use xlink:href="#m8233c1d0fc" x="59.45147" y="302.383876" style="fill: #916f6f; fill-opacity: 0.55; stroke: #916f6f; stroke-opacity: 0.55; stroke-width: 0.6"/>
     <use xlink:href="#m8233c1d0fc" x="59.45147" y="302.383876" style="fill: #916f6f; fill-opacity: 0.55; stroke: #916f6f; stroke-opacity: 0.55; stroke-width: 0.6"/>
     <use xlink:href="#m8233c1d0fc" x="263.795859" y="302.383876" style="fill: #916f6f; fill-opacity: 0.55; stroke: #916f6f; stroke-opacity: 0.55; stroke-width: 0.6"/>
     <use xlink:href="#m8233c1d0fc" x="59.45147" y="34.930929" style="fill: #916f6f; fill-opacity: 0.55; stroke: #916f6f; stroke-opacity: 0.55; stroke-width: 0.6"/>
     <use xlink:href="#m8233c1d0fc" x="263.795859" y="302.383876" style="fill: #916f6f; fill-opacity: 0.55; stroke: #916f6f; stroke-opacity: 0.55; stroke-width: 0.6"/>
     <use xlink:href="#m8233c1d0fc" x="59.45147" y="302.383876" style="fill: #916f6f; fill-opacity: 0.55; stroke: #916f6f; stroke-opacity: 0.55; stroke-width: 0.6"/>
     <use xlink:href="#m8233c1d0fc" x="263.795859" y="302.383876" style="fill: #916f6f; fill-opacity: 0.55; stroke: #916f6f; stroke-opacity: 0.55; stroke-width: 0.6"/>
     <use xlink:href="#m8233c1d0fc" x="59.45147" y="34.930929" style="fill: #916f6f; fill-opacity: 0.55; stroke: #916f6f; stroke-opacity: 0.55; stroke-width: 0.6"/>
     <use xlink:href="#m8233c1d0fc" x="263.795859" y="302.383876" style="fill: #916f6f; fill-opacity: 0.55; stroke: #916f6f; stroke-opacity: 0.55; stroke-width: 0.6"/>
     <use xlink:href="#m8233c1d0fc" x="59.45147" y="302.383876" style="fill: #916f6f; fill-opacity: 0.55; stroke: #916f6f; stroke-opacity: 0.55; stroke-width: 0.6"/>
     <use xlink:href="#m8233c1d0fc" x="263.795859" y="302.383876" style="fill: #916f6f; fill-opacity: 0.55; stroke: #916f6f; stroke-opacity: 0.55; stroke-width: 0.6"/>
     <use xlink:href="#m8233c1d0fc" x="59.45147" y="34.930929" style="fill: #916f6f; fill-opacity: 0.55; stroke: #916f6f; stroke-opacity: 0.55; stroke-width: 0.6"/>
     <use xlink:href="#m8233c1d0fc" x="263.795859" y="302.383876" style="fill: #916f6f; fill-opacity: 0.55; stroke: #916f6f; stroke-opacity: 0.55; stroke-width: 0.6"/>
     <use xlink:href="#m8233c1d0fc" x="263.795859" y="302.383876" style="fill: #916f6f; fill-opacity: 0.55; stroke: #916f6f; stroke-opacity: 0.55; stroke-width: 0.6"/>
     <use xlink:href="#m8233c1d0fc" x="59.45147" y="34.930929" style="fill: #916f6f; fill-opacity: 0.55; stroke: #916f6f; stroke-opacity: 0.55; stroke-width: 0.6"/>
     <use xlink:href="#m8233c1d0fc" x="263.795859" y="302.383876" style="fill: #916f6f; fill-opacity: 0.55; stroke: #916f6f; stroke-opacity: 0.55; stroke-width: 0.6"/>
     <use xlink:href="#m8233c1d0fc" x="59.45147" y="302.383876" style="fill: #916f6f; fill-opacity: 0.55; stroke: #916f6f; stroke-opacity: 0.55; stroke-width: 0.6"/>
     <use xlink:href="#m8233c1d0fc" x="59.45147" y="34.930929" style="fill: #916f6f; fill-opacity: 0.55; stroke: #916f6f; stroke-opacity: 0.55; stroke-width: 0.6"/>
     <use xlink:href="#m8233c1d0fc" x="263.795859" y="302.383876" style="fill: #916f6f; fill-opacity: 0.55; stroke: #916f6f; stroke-opacity: 0.55; stroke-width: 0.6"/>
     <use xlink:href="#m8233c1d0fc" x="59.45147" y="302.383876" style="fill: #916f6f; fill-opacity: 0.55; stroke: #916f6f; stroke-opacity: 0.55; stroke-width: 0.6"/>
     <use xlink:href="#m8233c1d0fc" x="263.795859" y="302.383876" style="fill: #916f6f; fill-opacity: 0.55; stroke: #916f6f; stroke-opacity: 0.55; stroke-width: 0.6"/>
     <use xlink:href="#m8233c1d0fc" x="59.45147" y="34.930929" style="fill: #916f6f; fill-opacity: 0.55; stroke: #916f6f; stroke-opacity: 0.55; stroke-width: 0.6"/>
     <use xlink:href="#m8233c1d0fc" x="263.795859" y="302.383876" style="fill: #916f6f; fill-opacity: 0.55; stroke: #916f6f; stroke-opacity: 0.55; stroke-width: 0.6"/>
     <use xlink:href="#m8233c1d0fc" x="59.45147" y="302.383876" style="fill: #916f6f; fill-opacity: 0.55; stroke: #916f6f; stroke-opacity: 0.55; stroke-width: 0.6"/>
     <use xlink:href="#m8233c1d0fc" x="79.885909" y="302.383876" style="fill: #916f6f; fill-opacity: 0.55; stroke: #916f6f; stroke-opacity: 0.55; stroke-width: 0.6"/>
     <use xlink:href="#m8233c1d0fc" x="59.45147" y="275.638581" style="fill: #916f6f; fill-opacity: 0.55; stroke: #916f6f; stroke-opacity: 0.55; stroke-width: 0.6"/>
     <use xlink:href="#m8233c1d0fc" x="79.885909" y="302.383876" style="fill: #916f6f; fill-opacity: 0.55; stroke: #916f6f; stroke-opacity: 0.55; stroke-width: 0.6"/>
     <use xlink:href="#m8233c1d0fc" x="59.45147" y="302.383876" style="fill: #916f6f; fill-opacity: 0.55; stroke: #916f6f; stroke-opacity: 0.55; stroke-width: 0.6"/>
     <use xlink:href="#m8233c1d0fc" x="59.45147" y="302.383876" style="fill: #916f6f; fill-opacity: 0.55; stroke: #916f6f; stroke-opacity: 0.55; stroke-width: 0.6"/>
    </g>
   </g>
   <g id="matplotlib.axis_1">
    <g id="xtick_1">
     <g id="line2d_1">
      <defs>
       <path id="m7c0c5ccc28" d="M 0 0 
L 0 3.5 
" style="stroke: #a1a1aa; stroke-width: 0.8"/>
      </defs>
      <g>
       <use xlink:href="#m7c0c5ccc28" x="59.45147" y="315.756523" style="fill: #a1a1aa; stroke: #a1a1aa; stroke-width: 0.8"/>
      </g>
     </g>
     <g id="text_1">
      <!-- 0 -->
      <g style="fill: #a1a1aa" transform="translate(56.747408 329.214531) scale(0.085 -0.085)">
       <defs>
        <path id="DejaVuSans-13" d="M 2034 4250 
Q 1547 4250 1301 3770 
Q 1056 3291 1056 2328 
Q 1056 1369 1301 889 
Q 1547 409 2034 409 
Q 2525 409 2770 889 
Q 3016 1369 3016 2328 
Q 3016 3291 2770 3770 
Q 2525 4250 2034 4250 
z
M 2034 4750 
Q 2819 4750 3233 4129 
Q 3647 3509 3647 2328 
Q 3647 1150 3233 529 
Q 2819 -91 2034 -91 
Q 1250 -91 836 529 
Q 422 1150 422 2328 
Q 422 3509 836 4129 
Q 1250 4750 2034 4750 
z
" transform="scale(0.015625)"/>
       </defs>
       <use xlink:href="#DejaVuSans-13"/>
      </g>
     </g>
    </g>
    <g id="xtick_2">
     <g id="line2d_2">
      <g>
       <use xlink:href="#m7c0c5ccc28" x="141.189226" y="315.756523" style="fill: #a1a1aa; stroke: #a1a1aa; stroke-width: 0.8"/>
      </g>
     </g>
     <g id="text_2">
      <!-- 2 -->
      <g style="fill: #a1a1aa" transform="translate(138.485163 329.214531) scale(0.085 -0.085)">
       <defs>
        <path id="DejaVuSans-15" d="M 1228 531 
L 3431 531 
L 3431 0 
L 469 0 
L 469 531 
Q 828 903 1448 1529 
Q 2069 2156 2228 2338 
Q 2531 2678 2651 2914 
Q 2772 3150 2772 3378 
Q 2772 3750 2511 3984 
Q 2250 4219 1831 4219 
Q 1534 4219 1204 4116 
Q 875 4013 500 3803 
L 500 4441 
Q 881 4594 1212 4672 
Q 1544 4750 1819 4750 
Q 2544 4750 2975 4387 
Q 3406 4025 3406 3419 
Q 3406 3131 3298 2873 
Q 3191 2616 2906 2266 
Q 2828 2175 2409 1742 
Q 1991 1309 1228 531 
z
" transform="scale(0.015625)"/>
       </defs>
       <use xlink:href="#DejaVuSans-15"/>
      </g>
     </g>
    </g>
    <g id="xtick_3">
     <g id="line2d_3">
      <g>
       <use xlink:href="#m7c0c5ccc28" x="222.926982" y="315.756523" style="fill: #a1a1aa; stroke: #a1a1aa; stroke-width: 0.8"/>
      </g>
     </g>
     <g id="text_3">
      <!-- 4 -->
      <g style="fill: #a1a1aa" transform="translate(220.222919 329.214531) scale(0.085 -0.085)">
       <defs>
        <path id="DejaVuSans-17" d="M 2419 4116 
L 825 1625 
L 2419 1625 
L 2419 4116 
z
M 2253 4666 
L 3047 4666 
L 3047 1625 
L 3713 1625 
L 3713 1100 
L 3047 1100 
L 3047 0 
L 2419 0 
L 2419 1100 
L 313 1100 
L 313 1709 
L 2253 4666 
z
" transform="scale(0.015625)"/>
       </defs>
       <use xlink:href="#DejaVuSans-17"/>
      </g>
     </g>
    </g>
    <g id="xtick_4">
     <g id="line2d_4">
      <g>
       <use xlink:href="#m7c0c5ccc28" x="304.664737" y="315.756523" style="fill: #a1a1aa; stroke: #a1a1aa; stroke-width: 0.8"/>
      </g>
     </g>
     <g id="text_4">
      <!-- 6 -->
      <g style="fill: #a1a1aa" transform="translate(301.960675 329.214531) scale(0.085 -0.085)">
       <defs>
        <path id="DejaVuSans-19" d="M 2113 2584 
Q 1688 2584 1439 2293 
Q 1191 2003 1191 1497 
Q 1191 994 1439 701 
Q 1688 409 2113 409 
Q 2538 409 2786 701 
Q 3034 994 3034 1497 
Q 3034 2003 2786 2293 
Q 2538 2584 2113 2584 
z
M 3366 4563 
L 3366 3988 
Q 3128 4100 2886 4159 
Q 2644 4219 2406 4219 
Q 1781 4219 1451 3797 
Q 1122 3375 1075 2522 
Q 1259 2794 1537 2939 
Q 1816 3084 2150 3084 
Q 2853 3084 3261 2657 
Q 3669 2231 3669 1497 
Q 3669 778 3244 343 
Q 2819 -91 2113 -91 
Q 1303 -91 875 529 
Q 447 1150 447 2328 
Q 447 3434 972 4092 
Q 1497 4750 2381 4750 
Q 2619 4750 2861 4703 
Q 3103 4656 3366 4563 
z
" transform="scale(0.015625)"/>
       </defs>
       <use xlink:href="#DejaVuSans-19"/>
      </g>
     </g>
    </g>
    <g id="xtick_5">
     <g id="line2d_5">
      <g>
       <use xlink:href="#m7c0c5ccc28" x="386.402493" y="315.756523" style="fill: #a1a1aa; stroke: #a1a1aa; stroke-width: 0.8"/>
      </g>
     </g>
     <g id="text_5">
      <!-- 8 -->
      <g style="fill: #a1a1aa" transform="translate(383.69843 329.214531) scale(0.085 -0.085)">
       <defs>
        <path id="DejaVuSans-1b" d="M 2034 2216 
Q 1584 2216 1326 1975 
Q 1069 1734 1069 1313 
Q 1069 891 1326 650 
Q 1584 409 2034 409 
Q 2484 409 2743 651 
Q 3003 894 3003 1313 
Q 3003 1734 2745 1975 
Q 2488 2216 2034 2216 
z
M 1403 2484 
Q 997 2584 770 2862 
Q 544 3141 544 3541 
Q 544 4100 942 4425 
Q 1341 4750 2034 4750 
Q 2731 4750 3128 4425 
Q 3525 4100 3525 3541 
Q 3525 3141 3298 2862 
Q 3072 2584 2669 2484 
Q 3125 2378 3379 2068 
Q 3634 1759 3634 1313 
Q 3634 634 3220 271 
Q 2806 -91 2034 -91 
Q 1263 -91 848 271 
Q 434 634 434 1313 
Q 434 1759 690 2068 
Q 947 2378 1403 2484 
z
M 1172 3481 
Q 1172 3119 1398 2916 
Q 1625 2713 2034 2713 
Q 2441 2713 2670 2916 
Q 2900 3119 2900 3481 
Q 2900 3844 2670 4047 
Q 2441 4250 2034 4250 
Q 1625 4250 1398 4047 
Q 1172 3844 1172 3481 
z
" transform="scale(0.015625)"/>
       </defs>
       <use xlink:href="#DejaVuSans-1b"/>
      </g>
     </g>
    </g>
    <g id="xtick_6">
     <g id="line2d_6">
      <g>
       <use xlink:href="#m7c0c5ccc28" x="468.140249" y="315.756523" style="fill: #a1a1aa; stroke: #a1a1aa; stroke-width: 0.8"/>
      </g>
     </g>
     <g id="text_6">
      <!-- 10 -->
      <g style="fill: #a1a1aa" transform="translate(462.732124 329.214531) scale(0.085 -0.085)">
       <defs>
        <path id="DejaVuSans-14" d="M 794 531 
L 1825 531 
L 1825 4091 
L 703 3866 
L 703 4441 
L 1819 4666 
L 2450 4666 
L 2450 531 
L 3481 531 
L 3481 0 
L 794 0 
L 794 531 
z
" transform="scale(0.015625)"/>
       </defs>
       <use xlink:href="#DejaVuSans-14"/>
       <use xlink:href="#DejaVuSans-13" transform="translate(63.625 0)"/>
      </g>
     </g>
    </g>
    <g id="text_7">
     <!-- Mean Neighbour Reward -->
     <g style="fill: #fafafa" transform="translate(202.365391 342.854961) scale(0.1 -0.1)">
      <defs>
       <path id="DejaVuSans-30" d="M 628 4666 
L 1569 4666 
L 2759 1491 
L 3956 4666 
L 4897 4666 
L 4897 0 
L 4281 0 
L 4281 4097 
L 3078 897 
L 2444 897 
L 1241 4097 
L 1241 0 
L 628 0 
L 628 4666 
z
" transform="scale(0.015625)"/>
       <path id="DejaVuSans-48" d="M 3597 1894 
L 3597 1613 
L 953 1613 
Q 991 1019 1311 708 
Q 1631 397 2203 397 
Q 2534 397 2845 478 
Q 3156 559 3463 722 
L 3463 178 
Q 3153 47 2828 -22 
Q 2503 -91 2169 -91 
Q 1331 -91 842 396 
Q 353 884 353 1716 
Q 353 2575 817 3079 
Q 1281 3584 2069 3584 
Q 2775 3584 3186 3129 
Q 3597 2675 3597 1894 
z
M 3022 2063 
Q 3016 2534 2758 2815 
Q 2500 3097 2075 3097 
Q 1594 3097 1305 2825 
Q 1016 2553 972 2059 
L 3022 2063 
z
" transform="scale(0.015625)"/>
       <path id="DejaVuSans-44" d="M 2194 1759 
Q 1497 1759 1228 1600 
Q 959 1441 959 1056 
Q 959 750 1161 570 
Q 1363 391 1709 391 
Q 2188 391 2477 730 
Q 2766 1069 2766 1631 
L 2766 1759 
L 2194 1759 
z
M 3341 1997 
L 3341 0 
L 2766 0 
L 2766 531 
Q 2569 213 2275 61 
Q 1981 -91 1556 -91 
Q 1019 -91 701 211 
Q 384 513 384 1019 
Q 384 1609 779 1909 
Q 1175 2209 1959 2209 
L 2766 2209 
L 2766 2266 
Q 2766 2663 2505 2880 
Q 2244 3097 1772 3097 
Q 1472 3097 1187 3025 
Q 903 2953 641 2809 
L 641 3341 
Q 956 3463 1253 3523 
Q 1550 3584 1831 3584 
Q 2591 3584 2966 3190 
Q 3341 2797 3341 1997 
z
" transform="scale(0.015625)"/>
       <path id="DejaVuSans-51" d="M 3513 2113 
L 3513 0 
L 2938 0 
L 2938 2094 
Q 2938 2591 2744 2837 
Q 2550 3084 2163 3084 
Q 1697 3084 1428 2787 
Q 1159 2491 1159 1978 
L 1159 0 
L 581 0 
L 581 3500 
L 1159 3500 
L 1159 2956 
Q 1366 3272 1645 3428 
Q 1925 3584 2291 3584 
Q 2894 3584 3203 3211 
Q 3513 2838 3513 2113 
z
" transform="scale(0.015625)"/>
       <path id="DejaVuSans-3" transform="scale(0.015625)"/>
       <path id="DejaVuSans-31" d="M 628 4666 
L 1478 4666 
L 3547 763 
L 3547 4666 
L 4159 4666 
L 4159 0 
L 3309 0 
L 1241 3903 
L 1241 0 
L 628 0 
L 628 4666 
z
" transform="scale(0.015625)"/>
       <path id="DejaVuSans-4c" d="M 603 3500 
L 1178 3500 
L 1178 0 
L 603 0 
L 603 3500 
z
M 603 4863 
L 1178 4863 
L 1178 4134 
L 603 4134 
L 603 4863 
z
" transform="scale(0.015625)"/>
       <path id="DejaVuSans-4a" d="M 2906 1791 
Q 2906 2416 2648 2759 
Q 2391 3103 1925 3103 
Q 1463 3103 1205 2759 
Q 947 2416 947 1791 
Q 947 1169 1205 825 
Q 1463 481 1925 481 
Q 2391 481 2648 825 
Q 2906 1169 2906 1791 
z
M 3481 434 
Q 3481 -459 3084 -895 
Q 2688 -1331 1869 -1331 
Q 1566 -1331 1297 -1286 
Q 1028 -1241 775 -1147 
L 775 -588 
Q 1028 -725 1275 -790 
Q 1522 -856 1778 -856 
Q 2344 -856 2625 -561 
Q 2906 -266 2906 331 
L 2906 616 
Q 2728 306 2450 153 
Q 2172 0 1784 0 
Q 1141 0 747 490 
Q 353 981 353 1791 
Q 353 2603 747 3093 
Q 1141 3584 1784 3584 
Q 2172 3584 2450 3431 
Q 2728 3278 2906 2969 
L 2906 3500 
L 3481 3500 
L 3481 434 
z
" transform="scale(0.015625)"/>
       <path id="DejaVuSans-4b" d="M 3513 2113 
L 3513 0 
L 2938 0 
L 2938 2094 
Q 2938 2591 2744 2837 
Q 2550 3084 2163 3084 
Q 1697 3084 1428 2787 
Q 1159 2491 1159 1978 
L 1159 0 
L 581 0 
L 581 4863 
L 1159 4863 
L 1159 2956 
Q 1366 3272 1645 3428 
Q 1925 3584 2291 3584 
Q 2894 3584 3203 3211 
Q 3513 2838 3513 2113 
z
" transform="scale(0.015625)"/>
       <path id="DejaVuSans-45" d="M 3116 1747 
Q 3116 2381 2855 2742 
Q 2594 3103 2138 3103 
Q 1681 3103 1420 2742 
Q 1159 2381 1159 1747 
Q 1159 1113 1420 752 
Q 1681 391 2138 391 
Q 2594 391 2855 752 
Q 3116 1113 3116 1747 
z
M 1159 2969 
Q 1341 3281 1617 3432 
Q 1894 3584 2278 3584 
Q 2916 3584 3314 3078 
Q 3713 2572 3713 1747 
Q 3713 922 3314 415 
Q 2916 -91 2278 -91 
Q 1894 -91 1617 61 
Q 1341 213 1159 525 
L 1159 0 
L 581 0 
L 581 4863 
L 1159 4863 
L 1159 2969 
z
" transform="scale(0.015625)"/>
       <path id="DejaVuSans-52" d="M 1959 3097 
Q 1497 3097 1228 2736 
Q 959 2375 959 1747 
Q 959 1119 1226 758 
Q 1494 397 1959 397 
Q 2419 397 2687 759 
Q 2956 1122 2956 1747 
Q 2956 2369 2687 2733 
Q 2419 3097 1959 3097 
z
M 1959 3584 
Q 2709 3584 3137 3096 
Q 3566 2609 3566 1747 
Q 3566 888 3137 398 
Q 2709 -91 1959 -91 
Q 1206 -91 779 398 
Q 353 888 353 1747 
Q 353 2609 779 3096 
Q 1206 3584 1959 3584 
z
" transform="scale(0.015625)"/>
       <path id="DejaVuSans-58" d="M 544 1381 
L 544 3500 
L 1119 3500 
L 1119 1403 
Q 1119 906 1312 657 
Q 1506 409 1894 409 
Q 2359 409 2629 706 
Q 2900 1003 2900 1516 
L 2900 3500 
L 3475 3500 
L 3475 0 
L 2900 0 
L 2900 538 
Q 2691 219 2414 64 
Q 2138 -91 1772 -91 
Q 1169 -91 856 284 
Q 544 659 544 1381 
z
M 1991 3584 
L 1991 3584 
z
" transform="scale(0.015625)"/>
       <path id="DejaVuSans-55" d="M 2631 2963 
Q 2534 3019 2420 3045 
Q 2306 3072 2169 3072 
Q 1681 3072 1420 2755 
Q 1159 2438 1159 1844 
L 1159 0 
L 581 0 
L 581 3500 
L 1159 3500 
L 1159 2956 
Q 1341 3275 1631 3429 
Q 1922 3584 2338 3584 
Q 2397 3584 2469 3576 
Q 2541 3569 2628 3553 
L 2631 2963 
z
" transform="scale(0.015625)"/>
       <path id="DejaVuSans-35" d="M 2841 2188 
Q 3044 2119 3236 1894 
Q 3428 1669 3622 1275 
L 4263 0 
L 3584 0 
L 2988 1197 
Q 2756 1666 2539 1819 
Q 2322 1972 1947 1972 
L 1259 1972 
L 1259 0 
L 628 0 
L 628 4666 
L 2053 4666 
Q 2853 4666 3247 4331 
Q 3641 3997 3641 3322 
Q 3641 2881 3436 2590 
Q 3231 2300 2841 2188 
z
M 1259 4147 
L 1259 2491 
L 2053 2491 
Q 2509 2491 2742 2702 
Q 2975 2913 2975 3322 
Q 2975 3731 2742 3939 
Q 2509 4147 2053 4147 
L 1259 4147 
z
" transform="scale(0.015625)"/>
       <path id="DejaVuSans-5a" d="M 269 3500 
L 844 3500 
L 1563 769 
L 2278 3500 
L 2956 3500 
L 3675 769 
L 4391 3500 
L 4966 3500 
L 4050 0 
L 3372 0 
L 2619 2869 
L 1863 0 
L 1184 0 
L 269 3500 
z
" transform="scale(0.015625)"/>
       <path id="DejaVuSans-47" d="M 2906 2969 
L 2906 4863 
L 3481 4863 
L 3481 0 
L 2906 0 
L 2906 525 
Q 2725 213 2448 61 
Q 2172 -91 1784 -91 
Q 1150 -91 751 415 
Q 353 922 353 1747 
Q 353 2572 751 3078 
Q 1150 3584 1784 3584 
Q 2172 3584 2448 3432 
Q 2725 3281 2906 2969 
z
M 947 1747 
Q 947 1113 1208 752 
Q 1469 391 1925 391 
Q 2381 391 2643 752 
Q 2906 1113 2906 1747 
Q 2906 2381 2643 2742 
Q 2381 3103 1925 3103 
Q 1469 3103 1208 2742 
Q 947 2381 947 1747 
z
" transform="scale(0.015625)"/>
      </defs>
      <use xlink:href="#DejaVuSans-30"/>
      <use xlink:href="#DejaVuSans-48" transform="translate(86.28125 0)"/>
      <use xlink:href="#DejaVuSans-44" transform="translate(147.8125 0)"/>
      <use xlink:href="#DejaVuSans-51" transform="translate(209.09375 0)"/>
      <use xlink:href="#DejaVuSans-3" transform="translate(272.46875 0)"/>
      <use xlink:href="#DejaVuSans-31" transform="translate(304.25 0)"/>
      <use xlink:href="#DejaVuSans-48" transform="translate(379.0625 0)"/>
      <use xlink:href="#DejaVuSans-4c" transform="translate(440.59375 0)"/>
      <use xlink:href="#DejaVuSans-4a" transform="translate(468.375 0)"/>
      <use xlink:href="#DejaVuSans-4b" transform="translate(531.859375 0)"/>
      <use xlink:href="#DejaVuSans-45" transform="translate(595.234375 0)"/>
      <use xlink:href="#DejaVuSans-52" transform="translate(658.71875 0)"/>
      <use xlink:href="#DejaVuSans-58" transform="translate(719.90625 0)"/>
      <use xlink:href="#DejaVuSans-55" transform="translate(783.28125 0)"/>
      <use xlink:href="#DejaVuSans-3" transform="translate(824.390625 0)"/>
      <use xlink:href="#DejaVuSans-35" transform="translate(856.171875 0)"/>
      <use xlink:href="#DejaVuSans-48" transform="translate(921.171875 0)"/>
      <use xlink:href="#DejaVuSans-5a" transform="translate(982.703125 0)"/>
      <use xlink:href="#DejaVuSans-44" transform="translate(1064.484375 0)"/>
      <use xlink:href="#DejaVuSans-55" transform="translate(1125.765625 0)"/>
      <use xlink:href="#DejaVuSans-47" transform="translate(1165.125 0)"/>
     </g>
    </g>
   </g>
   <g id="matplotlib.axis_2">
    <g id="ytick_1">
     <g id="line2d_7">
      <defs>
       <path id="md6ca1b9683" d="M 0 0 
L -3.5 0 
" style="stroke: #a1a1aa; stroke-width: 0.8"/>
      </defs>
      <g>
       <use xlink:href="#md6ca1b9683" x="39.017031" y="302.383876" style="fill: #a1a1aa; stroke: #a1a1aa; stroke-width: 0.8"/>
      </g>
     </g>
     <g id="text_8">
      <!-- 0 -->
      <g style="fill: #a1a1aa" transform="translate(26.608906 305.61288) scale(0.085 -0.085)">
       <use xlink:href="#DejaVuSans-13"/>
      </g>
     </g>
    </g>
    <g id="ytick_2">
     <g id="line2d_8">
      <g>
       <use xlink:href="#md6ca1b9683" x="39.017031" y="248.893287" style="fill: #a1a1aa; stroke: #a1a1aa; stroke-width: 0.8"/>
      </g>
     </g>
     <g id="text_9">
      <!-- 2 -->
      <g style="fill: #a1a1aa" transform="translate(26.608906 252.12229) scale(0.085 -0.085)">
       <use xlink:href="#DejaVuSans-15"/>
      </g>
     </g>
    </g>
    <g id="ytick_3">
     <g id="line2d_9">
      <g>
       <use xlink:href="#md6ca1b9683" x="39.017031" y="195.402697" style="fill: #a1a1aa; stroke: #a1a1aa; stroke-width: 0.8"/>
      </g>
     </g>
     <g id="text_10">
      <!-- 4 -->
      <g style="fill: #a1a1aa" transform="translate(26.608906 198.631701) scale(0.085 -0.085)">
       <use xlink:href="#DejaVuSans-17"/>
      </g>
     </g>
    </g>
    <g id="ytick_4">
     <g id="line2d_10">
      <g>
       <use xlink:href="#md6ca1b9683" x="39.017031" y="141.912108" style="fill: #a1a1aa; stroke: #a1a1aa; stroke-width: 0.8"/>
      </g>
     </g>
     <g id="text_11">
      <!-- 6 -->
      <g style="fill: #a1a1aa" transform="translate(26.608906 145.141112) scale(0.085 -0.085)">
       <use xlink:href="#DejaVuSans-19"/>
      </g>
     </g>
    </g>
    <g id="ytick_5">
     <g id="line2d_11">
      <g>
       <use xlink:href="#md6ca1b9683" x="39.017031" y="88.421518" style="fill: #a1a1aa; stroke: #a1a1aa; stroke-width: 0.8"/>
      </g>
     </g>
     <g id="text_12">
      <!-- 8 -->
      <g style="fill: #a1a1aa" transform="translate(26.608906 91.650522) scale(0.085 -0.085)">
       <use xlink:href="#DejaVuSans-1b"/>
      </g>
     </g>
    </g>
    <g id="ytick_6">
     <g id="line2d_12">
      <g>
       <use xlink:href="#md6ca1b9683" x="39.017031" y="34.930929" style="fill: #a1a1aa; stroke: #a1a1aa; stroke-width: 0.8"/>
      </g>
     </g>
     <g id="text_13">
      <!-- 10 -->
      <g style="fill: #a1a1aa" transform="translate(21.200781 38.159933) scale(0.085 -0.085)">
       <use xlink:href="#DejaVuSans-14"/>
       <use xlink:href="#DejaVuSans-13" transform="translate(63.625 0)"/>
      </g>
     </g>
    </g>
    <g id="text_14">
     <!-- Tile Reward -->
     <g style="fill: #fafafa" transform="translate(14.798438 197.623027) rotate(-90) scale(0.1 -0.1)">
      <defs>
       <path id="DejaVuSans-37" d="M -19 4666 
L 3928 4666 
L 3928 4134 
L 2272 4134 
L 2272 0 
L 1638 0 
L 1638 4134 
L -19 4134 
L -19 4666 
z
" transform="scale(0.015625)"/>
       <path id="DejaVuSans-4f" d="M 603 4863 
L 1178 4863 
L 1178 0 
L 603 0 
L 603 4863 
z
" transform="scale(0.015625)"/>
      </defs>
      <use xlink:href="#DejaVuSans-37"/>
      <use xlink:href="#DejaVuSans-4c" transform="translate(58 0)"/>
      <use xlink:href="#DejaVuSans-4f" transform="translate(85.78125 0)"/>
      <use xlink:href="#DejaVuSans-48" transform="translate(113.5625 0)"/>
      <use xlink:href="#DejaVuSans-3" transform="translate(175.09375 0)"/>
      <use xlink:href="#DejaVuSans-35" transform="translate(206.875 0)"/>
      <use xlink:href="#DejaVuSans-48" transform="translate(271.875 0)"/>
      <use xlink:href="#DejaVuSans-5a" transform="translate(333.40625 0)"/>
      <use xlink:href="#DejaVuSans-44" transform="translate(415.1875 0)"/>
      <use xlink:href="#DejaVuSans-55" transform="translate(476.46875 0)"/>
      <use xlink:href="#DejaVuSans-47" transform="translate(515.828125 0)"/>
     </g>
    </g>
   </g>
   <g id="line2d_13">
    <path d="M 59.45147 245.526965 
L 63.57964 243.962374 
L 67.707809 242.397782 
L 71.835979 240.83319 
L 75.964148 239.268598 
L 80.092318 237.704006 
L 84.220487 236.139414 
L 88.348657 234.574823 
L 92.476826 233.010231 
L 96.604995 231.445639 
L 100.733165 229.881047 
L 104.861334 228.316455 
L 108.989504 226.751863 
L 113.117673 225.187272 
L 117.245843 223.62268 
L 121.374012 222.058088 
L 125.502182 220.493496 
L 129.630351 218.928904 
L 133.758521 217.364312 
L 137.88669 215.799721 
L 142.01486 214.235129 
L 146.143029 212.670537 
L 150.271199 211.105945 
L 154.399368 209.541353 
L 158.527538 207.976761 
L 162.655707 206.41217 
L 166.783877 204.847578 
L 170.912046 203.282986 
L 175.040216 201.718394 
L 179.168385 200.153802 
L 183.296555 198.589211 
L 187.424724 197.024619 
L 191.552893 195.460027 
L 195.681063 193.895435 
L 199.809232 192.330843 
L 203.937402 190.766251 
L 208.065571 189.20166 
L 212.193741 187.637068 
L 216.32191 186.072476 
L 220.45008 184.507884 
L 224.578249 182.943292 
L 228.706419 181.3787 
L 232.834588 179.814109 
L 236.962758 178.249517 
L 241.090927 176.684925 
L 245.219097 175.120333 
L 249.347266 173.555741 
L 253.475436 171.991149 
L 257.603605 170.426558 
L 261.731775 168.861966 
L 265.859944 167.297374 
L 269.988114 165.732782 
L 274.116283 164.16819 
L 278.244453 162.603599 
L 282.372622 161.039007 
L 286.500792 159.474415 
L 290.628961 157.909823 
L 294.75713 156.345231 
L 298.8853 154.780639 
L 303.013469 153.216048 
L 307.141639 151.651456 
L 311.269808 150.086864 
L 315.397978 148.522272 
L 319.526147 146.95768 
L 323.654317 145.393088 
L 327.782486 143.828497 
L 331.910656 142.263905 
L 336.038825 140.699313 
L 340.166995 139.134721 
L 344.295164 137.570129 
L 348.423334 136.005537 
L 352.551503 134.440946 
L 356.679673 132.876354 
L 360.807842 131.311762 
L 364.936012 129.74717 
L 369.064181 128.182578 
L 373.192351 126.617987 
L 377.32052 125.053395 
L 381.44869 123.488803 
L 385.576859 121.924211 
L 389.705028 120.359619 
L 393.833198 118.795027 
L 397.961367 117.230436 
L 402.089537 115.665844 
L 406.217706 114.101252 
L 410.345876 112.53666 
L 414.474045 110.972068 
L 418.602215 109.407476 
L 422.730384 107.842885 
L 426.858554 106.278293 
L 430.986723 104.713701 
L 435.114893 103.149109 
L 439.243062 101.584517 
L 443.371232 100.019925 
L 447.499401 98.455334 
L 451.627571 96.890742 
L 455.75574 95.32615 
L 459.88391 93.761558 
L 464.012079 92.196966 
L 468.140249 90.632374 
" clip-path="url(#p2026ed3191)" style="fill: none; stroke: #d4d4d8; stroke-width: 2; stroke-linecap: square"/>
   </g>
   <g id="patch_3">
    <path d="M 39.017031 315.756523 
L 39.017031 21.558281 
" style="fill: none; stroke: #27272a; stroke-width: 0.8; stroke-linejoin: miter; stroke-linecap: square"/>
   </g>
   <g id="patch_4">
    <path d="M 39.017031 315.756523 
L 488.574688 315.756523 
" style="fill: none; stroke: #27272a; stroke-width: 0.8; stroke-linejoin: miter; stroke-linecap: square"/>
   </g>
   <g id="text_15">
    <!-- Reward vs Neighbour Reward Mean (r=0.509) -->
    <g style="fill: #fafafa" transform="translate(121.558984 15.558281) scale(0.11 -0.11)">
     <defs>
      <path id="DejaVuSans-Bold-35" d="M 2297 2597 
Q 2675 2597 2839 2737 
Q 3003 2878 3003 3200 
Q 3003 3519 2839 3656 
Q 2675 3794 2297 3794 
L 1791 3794 
L 1791 2597 
L 2297 2597 
z
M 1791 1766 
L 1791 0 
L 588 0 
L 588 4666 
L 2425 4666 
Q 3347 4666 3776 4356 
Q 4206 4047 4206 3378 
Q 4206 2916 3982 2619 
Q 3759 2322 3309 2181 
Q 3556 2125 3751 1926 
Q 3947 1728 4147 1325 
L 4800 0 
L 3519 0 
L 2950 1159 
Q 2778 1509 2601 1637 
Q 2425 1766 2131 1766 
L 1791 1766 
z
" transform="scale(0.015625)"/>
      <path id="DejaVuSans-Bold-48" d="M 4031 1759 
L 4031 1441 
L 1416 1441 
Q 1456 1047 1700 850 
Q 1944 653 2381 653 
Q 2734 653 3104 758 
Q 3475 863 3866 1075 
L 3866 213 
Q 3469 63 3072 -14 
Q 2675 -91 2278 -91 
Q 1328 -91 801 392 
Q 275 875 275 1747 
Q 275 2603 792 3093 
Q 1309 3584 2216 3584 
Q 3041 3584 3536 3087 
Q 4031 2591 4031 1759 
z
M 2881 2131 
Q 2881 2450 2695 2645 
Q 2509 2841 2209 2841 
Q 1884 2841 1681 2658 
Q 1478 2475 1428 2131 
L 2881 2131 
z
" transform="scale(0.015625)"/>
      <path id="DejaVuSans-Bold-5a" d="M 225 3500 
L 1313 3500 
L 1900 1088 
L 2491 3500 
L 3425 3500 
L 4013 1113 
L 4603 3500 
L 5691 3500 
L 4769 0 
L 3547 0 
L 2956 2406 
L 2369 0 
L 1147 0 
L 225 3500 
z
" transform="scale(0.015625)"/>
      <path id="DejaVuSans-Bold-44" d="M 2106 1575 
Q 1756 1575 1579 1456 
Q 1403 1338 1403 1106 
Q 1403 894 1545 773 
Q 1688 653 1941 653 
Q 2256 653 2472 879 
Q 2688 1106 2688 1447 
L 2688 1575 
L 2106 1575 
z
M 3816 1997 
L 3816 0 
L 2688 0 
L 2688 519 
Q 2463 200 2181 54 
Q 1900 -91 1497 -91 
Q 953 -91 614 226 
Q 275 544 275 1050 
Q 275 1666 698 1953 
Q 1122 2241 2028 2241 
L 2688 2241 
L 2688 2328 
Q 2688 2594 2478 2717 
Q 2269 2841 1825 2841 
Q 1466 2841 1156 2769 
Q 847 2697 581 2553 
L 581 3406 
Q 941 3494 1303 3539 
Q 1666 3584 2028 3584 
Q 2975 3584 3395 3211 
Q 3816 2838 3816 1997 
z
" transform="scale(0.015625)"/>
      <path id="DejaVuSans-Bold-55" d="M 3138 2547 
Q 2991 2616 2845 2648 
Q 2700 2681 2553 2681 
Q 2122 2681 1889 2404 
Q 1656 2128 1656 1613 
L 1656 0 
L 538 0 
L 538 3500 
L 1656 3500 
L 1656 2925 
Q 1872 3269 2151 3426 
Q 2431 3584 2822 3584 
Q 2878 3584 2943 3579 
Q 3009 3575 3134 3559 
L 3138 2547 
z
" transform="scale(0.015625)"/>
      <path id="DejaVuSans-Bold-47" d="M 2919 2988 
L 2919 4863 
L 4044 4863 
L 4044 0 
L 2919 0 
L 2919 506 
Q 2688 197 2409 53 
Q 2131 -91 1766 -91 
Q 1119 -91 703 423 
Q 288 938 288 1747 
Q 288 2556 703 3070 
Q 1119 3584 1766 3584 
Q 2128 3584 2408 3439 
Q 2688 3294 2919 2988 
z
M 2181 722 
Q 2541 722 2730 984 
Q 2919 1247 2919 1747 
Q 2919 2247 2730 2509 
Q 2541 2772 2181 2772 
Q 1825 2772 1636 2509 
Q 1447 2247 1447 1747 
Q 1447 1247 1636 984 
Q 1825 722 2181 722 
z
" transform="scale(0.015625)"/>
      <path id="DejaVuSans-Bold-3" transform="scale(0.015625)"/>
      <path id="DejaVuSans-Bold-59" d="M 97 3500 
L 1216 3500 
L 2088 1081 
L 2956 3500 
L 4078 3500 
L 2700 0 
L 1472 0 
L 97 3500 
z
" transform="scale(0.015625)"/>
      <path id="DejaVuSans-Bold-56" d="M 3272 3391 
L 3272 2541 
Q 2913 2691 2578 2766 
Q 2244 2841 1947 2841 
Q 1628 2841 1473 2761 
Q 1319 2681 1319 2516 
Q 1319 2381 1436 2309 
Q 1553 2238 1856 2203 
L 2053 2175 
Q 2913 2066 3209 1816 
Q 3506 1566 3506 1031 
Q 3506 472 3093 190 
Q 2681 -91 1863 -91 
Q 1516 -91 1145 -36 
Q 775 19 384 128 
L 384 978 
Q 719 816 1070 734 
Q 1422 653 1784 653 
Q 2113 653 2278 743 
Q 2444 834 2444 1013 
Q 2444 1163 2330 1236 
Q 2216 1309 1875 1350 
L 1678 1375 
Q 931 1469 631 1722 
Q 331 1975 331 2491 
Q 331 3047 712 3315 
Q 1094 3584 1881 3584 
Q 2191 3584 2531 3537 
Q 2872 3491 3272 3391 
z
" transform="scale(0.015625)"/>
      <path id="DejaVuSans-Bold-31" d="M 588 4666 
L 1931 4666 
L 3628 1466 
L 3628 4666 
L 4769 4666 
L 4769 0 
L 3425 0 
L 1728 3200 
L 1728 0 
L 588 0 
L 588 4666 
z
" transform="scale(0.015625)"/>
      <path id="DejaVuSans-Bold-4c" d="M 538 3500 
L 1656 3500 
L 1656 0 
L 538 0 
L 538 3500 
z
M 538 4863 
L 1656 4863 
L 1656 3950 
L 538 3950 
L 538 4863 
z
" transform="scale(0.015625)"/>
      <path id="DejaVuSans-Bold-4a" d="M 2919 594 
Q 2688 288 2409 144 
Q 2131 0 1766 0 
Q 1125 0 706 504 
Q 288 1009 288 1791 
Q 288 2575 706 3076 
Q 1125 3578 1766 3578 
Q 2131 3578 2409 3434 
Q 2688 3291 2919 2981 
L 2919 3500 
L 4044 3500 
L 4044 353 
Q 4044 -491 3511 -936 
Q 2978 -1381 1966 -1381 
Q 1638 -1381 1331 -1331 
Q 1025 -1281 716 -1178 
L 716 -306 
Q 1009 -475 1290 -558 
Q 1572 -641 1856 -641 
Q 2406 -641 2662 -400 
Q 2919 -159 2919 353 
L 2919 594 
z
M 2181 2772 
Q 1834 2772 1640 2515 
Q 1447 2259 1447 1791 
Q 1447 1309 1634 1061 
Q 1822 813 2181 813 
Q 2531 813 2725 1069 
Q 2919 1325 2919 1791 
Q 2919 2259 2725 2515 
Q 2531 2772 2181 2772 
z
" transform="scale(0.015625)"/>
      <path id="DejaVuSans-Bold-4b" d="M 4056 2131 
L 4056 0 
L 2931 0 
L 2931 347 
L 2931 1625 
Q 2931 2084 2911 2256 
Q 2891 2428 2841 2509 
Q 2775 2619 2662 2680 
Q 2550 2741 2406 2741 
Q 2056 2741 1856 2470 
Q 1656 2200 1656 1722 
L 1656 0 
L 538 0 
L 538 4863 
L 1656 4863 
L 1656 2988 
Q 1909 3294 2193 3439 
Q 2478 3584 2822 3584 
Q 3428 3584 3742 3212 
Q 4056 2841 4056 2131 
z
" transform="scale(0.015625)"/>
      <path id="DejaVuSans-Bold-45" d="M 2400 722 
Q 2759 722 2948 984 
Q 3138 1247 3138 1747 
Q 3138 2247 2948 2509 
Q 2759 2772 2400 2772 
Q 2041 2772 1848 2508 
Q 1656 2244 1656 1747 
Q 1656 1250 1848 986 
Q 2041 722 2400 722 
z
M 1656 2988 
Q 1888 3294 2169 3439 
Q 2450 3584 2816 3584 
Q 3463 3584 3878 3070 
Q 4294 2556 4294 1747 
Q 4294 938 3878 423 
Q 3463 -91 2816 -91 
Q 2450 -91 2169 54 
Q 1888 200 1656 506 
L 1656 0 
L 538 0 
L 538 4863 
L 1656 4863 
L 1656 2988 
z
" transform="scale(0.015625)"/>
      <path id="DejaVuSans-Bold-52" d="M 2203 2784 
Q 1831 2784 1636 2517 
Q 1441 2250 1441 1747 
Q 1441 1244 1636 976 
Q 1831 709 2203 709 
Q 2569 709 2762 976 
Q 2956 1244 2956 1747 
Q 2956 2250 2762 2517 
Q 2569 2784 2203 2784 
z
M 2203 3584 
Q 3106 3584 3614 3096 
Q 4122 2609 4122 1747 
Q 4122 884 3614 396 
Q 3106 -91 2203 -91 
Q 1297 -91 786 396 
Q 275 884 275 1747 
Q 275 2609 786 3096 
Q 1297 3584 2203 3584 
z
" transform="scale(0.015625)"/>
      <path id="DejaVuSans-Bold-58" d="M 500 1363 
L 500 3500 
L 1625 3500 
L 1625 3150 
Q 1625 2866 1622 2436 
Q 1619 2006 1619 1863 
Q 1619 1441 1641 1255 
Q 1663 1069 1716 984 
Q 1784 875 1895 815 
Q 2006 756 2150 756 
Q 2500 756 2700 1025 
Q 2900 1294 2900 1772 
L 2900 3500 
L 4019 3500 
L 4019 0 
L 2900 0 
L 2900 506 
Q 2647 200 2364 54 
Q 2081 -91 1741 -91 
Q 1134 -91 817 281 
Q 500 653 500 1363 
z
" transform="scale(0.015625)"/>
      <path id="DejaVuSans-Bold-30" d="M 588 4666 
L 2119 4666 
L 3181 2169 
L 4250 4666 
L 5778 4666 
L 5778 0 
L 4641 0 
L 4641 3413 
L 3566 897 
L 2803 897 
L 1728 3413 
L 1728 0 
L 588 0 
L 588 4666 
z
" transform="scale(0.015625)"/>
      <path id="DejaVuSans-Bold-51" d="M 4056 2131 
L 4056 0 
L 2931 0 
L 2931 347 
L 2931 1631 
Q 2931 2084 2911 2256 
Q 2891 2428 2841 2509 
Q 2775 2619 2662 2680 
Q 2550 2741 2406 2741 
Q 2056 2741 1856 2470 
Q 1656 2200 1656 1722 
L 1656 0 
L 538 0 
L 538 3500 
L 1656 3500 
L 1656 2988 
Q 1909 3294 2193 3439 
Q 2478 3584 2822 3584 
Q 3428 3584 3742 3212 
Q 4056 2841 4056 2131 
z
" transform="scale(0.015625)"/>
      <path id="DejaVuSans-Bold-b" d="M 2413 -844 
L 1484 -844 
Q 1006 -72 778 623 
Q 550 1319 550 2003 
Q 550 2688 779 3389 
Q 1009 4091 1484 4856 
L 2413 4856 
Q 2013 4116 1813 3408 
Q 1613 2700 1613 2009 
Q 1613 1319 1811 609 
Q 2009 -100 2413 -844 
z
" transform="scale(0.015625)"/>
      <path id="DejaVuSans-Bold-20" d="M 678 3084 
L 4684 3084 
L 4684 2350 
L 678 2350 
L 678 3084 
z
M 678 1663 
L 4684 1663 
L 4684 922 
L 678 922 
L 678 1663 
z
" transform="scale(0.015625)"/>
      <path id="DejaVuSans-Bold-13" d="M 2944 2338 
Q 2944 3213 2780 3570 
Q 2616 3928 2228 3928 
Q 1841 3928 1675 3570 
Q 1509 3213 1509 2338 
Q 1509 1453 1675 1090 
Q 1841 728 2228 728 
Q 2613 728 2778 1090 
Q 2944 1453 2944 2338 
z
M 4147 2328 
Q 4147 1169 3647 539 
Q 3147 -91 2228 -91 
Q 1306 -91 806 539 
Q 306 1169 306 2328 
Q 306 3491 806 4120 
Q 1306 4750 2228 4750 
Q 3147 4750 3647 4120 
Q 4147 3491 4147 2328 
z
" transform="scale(0.015625)"/>
      <path id="DejaVuSans-Bold-11" d="M 653 1209 
L 1778 1209 
L 1778 0 
L 653 0 
L 653 1209 
z
" transform="scale(0.015625)"/>
      <path id="DejaVuSans-Bold-18" d="M 678 4666 
L 3669 4666 
L 3669 3781 
L 1638 3781 
L 1638 3059 
Q 1775 3097 1914 3117 
Q 2053 3138 2203 3138 
Q 3056 3138 3531 2711 
Q 4006 2284 4006 1522 
Q 4006 766 3489 337 
Q 2972 -91 2053 -91 
Q 1656 -91 1267 -14 
Q 878 63 494 219 
L 494 1166 
Q 875 947 1217 837 
Q 1559 728 1863 728 
Q 2300 728 2551 942 
Q 2803 1156 2803 1522 
Q 2803 1891 2551 2103 
Q 2300 2316 1863 2316 
Q 1603 2316 1309 2248 
Q 1016 2181 678 2041 
L 678 4666 
z
" transform="scale(0.015625)"/>
      <path id="DejaVuSans-Bold-1c" d="M 641 103 
L 641 966 
Q 928 831 1190 764 
Q 1453 697 1709 697 
Q 2247 697 2547 995 
Q 2847 1294 2900 1881 
Q 2688 1725 2447 1647 
Q 2206 1569 1925 1569 
Q 1209 1569 770 1986 
Q 331 2403 331 3084 
Q 331 3838 820 4291 
Q 1309 4744 2131 4744 
Q 3044 4744 3544 4128 
Q 4044 3513 4044 2388 
Q 4044 1231 3459 570 
Q 2875 -91 1856 -91 
Q 1528 -91 1228 -42 
Q 928 6 641 103 
z
M 2125 2350 
Q 2441 2350 2600 2554 
Q 2759 2759 2759 3169 
Q 2759 3575 2600 3781 
Q 2441 3988 2125 3988 
Q 1809 3988 1650 3781 
Q 1491 3575 1491 3169 
Q 1491 2759 1650 2554 
Q 1809 2350 2125 2350 
z
" transform="scale(0.015625)"/>
      <path id="DejaVuSans-Bold-c" d="M 513 -844 
Q 913 -100 1113 609 
Q 1313 1319 1313 2009 
Q 1313 2700 1113 3408 
Q 913 4116 513 4856 
L 1441 4856 
Q 1916 4091 2145 3389 
Q 2375 2688 2375 2003 
Q 2375 1319 2147 623 
Q 1919 -72 1441 -844 
L 513 -844 
z
" transform="scale(0.015625)"/>
     </defs>
     <use xlink:href="#DejaVuSans-Bold-35"/>
     <use xlink:href="#DejaVuSans-Bold-48" transform="translate(77 0)"/>
     <use xlink:href="#DejaVuSans-Bold-5a" transform="translate(144.828125 0)"/>
     <use xlink:href="#DejaVuSans-Bold-44" transform="translate(237.21875 0)"/>
     <use xlink:href="#DejaVuSans-Bold-55" transform="translate(304.703125 0)"/>
     <use xlink:href="#DejaVuSans-Bold-47" transform="translate(354.015625 0)"/>
     <use xlink:href="#DejaVuSans-Bold-3" transform="translate(425.59375 0)"/>
     <use xlink:href="#DejaVuSans-Bold-59" transform="translate(460.40625 0)"/>
     <use xlink:href="#DejaVuSans-Bold-56" transform="translate(525.59375 0)"/>
     <use xlink:href="#DejaVuSans-Bold-3" transform="translate(585.109375 0)"/>
     <use xlink:href="#DejaVuSans-Bold-31" transform="translate(619.921875 0)"/>
     <use xlink:href="#DejaVuSans-Bold-48" transform="translate(703.609375 0)"/>
     <use xlink:href="#DejaVuSans-Bold-4c" transform="translate(771.4375 0)"/>
     <use xlink:href="#DejaVuSans-Bold-4a" transform="translate(805.71875 0)"/>
     <use xlink:href="#DejaVuSans-Bold-4b" transform="translate(877.296875 0)"/>
     <use xlink:href="#DejaVuSans-Bold-45" transform="translate(948.484375 0)"/>
     <use xlink:href="#DejaVuSans-Bold-52" transform="translate(1020.0625 0)"/>
     <use xlink:href="#DejaVuSans-Bold-58" transform="translate(1088.765625 0)"/>
     <use xlink:href="#DejaVuSans-Bold-55" transform="translate(1159.953125 0)"/>
     <use xlink:href="#DejaVuSans-Bold-3" transform="translate(1209.265625 0)"/>
     <use xlink:href="#DejaVuSans-Bold-35" transform="translate(1244.078125 0)"/>
     <use xlink:href="#DejaVuSans-Bold-48" transform="translate(1321.078125 0)"/>
     <use xlink:href="#DejaVuSans-Bold-5a" transform="translate(1388.90625 0)"/>
     <use xlink:href="#DejaVuSans-Bold-44" transform="translate(1481.296875 0)"/>
     <use xlink:href="#DejaVuSans-Bold-55" transform="translate(1548.78125 0)"/>
     <use xlink:href="#DejaVuSans-Bold-47" transform="translate(1598.09375 0)"/>
     <use xlink:href="#DejaVuSans-Bold-3" transform="translate(1669.671875 0)"/>
     <use xlink:href="#DejaVuSans-Bold-30" transform="translate(1704.484375 0)"/>
     <use xlink:href="#DejaVuSans-Bold-48" transform="translate(1804 0)"/>
     <use xlink:href="#DejaVuSans-Bold-44" transform="translate(1871.828125 0)"/>
     <use xlink:href="#DejaVuSans-Bold-51" transform="translate(1939.3125 0)"/>
     <use xlink:href="#DejaVuSans-Bold-3" transform="translate(2010.5 0)"/>
     <use xlink:href="#DejaVuSans-Bold-b" transform="translate(2045.3125 0)"/>
     <use xlink:href="#DejaVuSans-Bold-55" transform="translate(2091.015625 0)"/>
     <use xlink:href="#DejaVuSans-Bold-20" transform="translate(2140.328125 0)"/>
     <use xlink:href="#DejaVuSans-Bold-13" transform="translate(2224.125 0)"/>
     <use xlink:href="#DejaVuSans-Bold-11" transform="translate(2293.703125 0)"/>
     <use xlink:href="#DejaVuSans-Bold-18" transform="translate(2331.6875 0)"/>
     <use xlink:href="#DejaVuSans-Bold-13" transform="translate(2401.265625 0)"/>
     <use xlink:href="#DejaVuSans-Bold-1c" transform="translate(2470.84375 0)"/>
     <use xlink:href="#DejaVuSans-Bold-c" transform="translate(2540.421875 0)"/>
    </g>
   </g>
   <g id="legend_1">
    <g id="patch_5">
     <path d="M 393.107734 182.683066 
L 482.624687 182.683066 
Q 484.324687 182.683066 484.324687 180.983066 
L 484.324687 156.331738 
Q 484.324687 154.631738 482.624687 154.631738 
L 393.107734 154.631738 
Q 391.407734 154.631738 391.407734 156.331738 
L 391.407734 180.983066 
Q 391.407734 182.683066 393.107734 182.683066 
z
" style="fill: #18181b; opacity: 0.9; stroke: #27272a; stroke-width: 0.6; stroke-linejoin: miter"/>
    </g>
    <g id="PathCollection_2">
     <g>
      <use xlink:href="#m8233c1d0fc" x="403.307734" y="162.25916" style="fill: #916f6f; fill-opacity: 0.55; stroke: #916f6f; stroke-opacity: 0.55; stroke-width: 0.6"/>
     </g>
    </g>
    <g id="text_16">
     <!-- tiles -->
     <g style="fill: #fafafa" transform="translate(418.607734 164.49041) scale(0.085 -0.085)">
      <defs>
       <path id="DejaVuSans-57" d="M 1172 4494 
L 1172 3500 
L 2356 3500 
L 2356 3053 
L 1172 3053 
L 1172 1153 
Q 1172 725 1289 603 
Q 1406 481 1766 481 
L 2356 481 
L 2356 0 
L 1766 0 
Q 1100 0 847 248 
Q 594 497 594 1153 
L 594 3053 
L 172 3053 
L 172 3500 
L 594 3500 
L 594 4494 
L 1172 4494 
z
" transform="scale(0.015625)"/>
       <path id="DejaVuSans-56" d="M 2834 3397 
L 2834 2853 
Q 2591 2978 2328 3040 
Q 2066 3103 1784 3103 
Q 1356 3103 1142 2972 
Q 928 2841 928 2578 
Q 928 2378 1081 2264 
Q 1234 2150 1697 2047 
L 1894 2003 
Q 2506 1872 2764 1633 
Q 3022 1394 3022 966 
Q 3022 478 2636 193 
Q 2250 -91 1575 -91 
Q 1294 -91 989 -36 
Q 684 19 347 128 
L 347 722 
Q 666 556 975 473 
Q 1284 391 1588 391 
Q 1994 391 2212 530 
Q 2431 669 2431 922 
Q 2431 1156 2273 1281 
Q 2116 1406 1581 1522 
L 1381 1569 
Q 847 1681 609 1914 
Q 372 2147 372 2553 
Q 372 3047 722 3315 
Q 1072 3584 1716 3584 
Q 2034 3584 2315 3537 
Q 2597 3491 2834 3397 
z
" transform="scale(0.015625)"/>
      </defs>
      <use xlink:href="#DejaVuSans-57"/>
      <use xlink:href="#DejaVuSans-4c" transform="translate(39.203125 0)"/>
      <use xlink:href="#DejaVuSans-4f" transform="translate(66.984375 0)"/>
      <use xlink:href="#DejaVuSans-48" transform="translate(94.765625 0)"/>
      <use xlink:href="#DejaVuSans-56" transform="translate(156.296875 0)"/>
     </g>
    </g>
    <g id="line2d_14">
     <path d="M 394.807734 174.266074 
L 403.307734 174.266074 
L 411.807734 174.266074 
" style="fill: none; stroke: #d4d4d8; stroke-width: 2; stroke-linecap: square"/>
    </g>
    <g id="text_17">
     <!-- regression line -->
     <g style="fill: #fafafa" transform="translate(418.607734 177.241074) scale(0.085 -0.085)">
      <use xlink:href="#DejaVuSans-55"/>
      <use xlink:href="#DejaVuSans-48" transform="translate(38.90625 0)"/>
      <use xlink:href="#DejaVuSans-4a" transform="translate(100.4375 0)"/>
      <use xlink:href="#DejaVuSans-55" transform="translate(163.921875 0)"/>
      <use xlink:href="#DejaVuSans-48" transform="translate(202.828125 0)"/>
      <use xlink:href="#DejaVuSans-56" transform="translate(264.359375 0)"/>
      <use xlink:href="#DejaVuSans-56" transform="translate(316.453125 0)"/>
      <use xlink:href="#DejaVuSans-4c" transform="translate(368.546875 0)"/>
      <use xlink:href="#DejaVuSans-52" transform="translate(396.328125 0)"/>
      <use xlink:href="#DejaVuSans-51" transform="translate(457.515625 0)"/>
      <use xlink:href="#DejaVuSans-3" transform="translate(520.890625 0)"/>
      <use xlink:href="#DejaVuSans-4f" transform="translate(552.671875 0)"/>
      <use xlink:href="#DejaVuSans-4c" transform="translate(580.453125 0)"/>
      <use xlink:href="#DejaVuSans-51" transform="translate(608.234375 0)"/>
      <use xlink:href="#DejaVuSans-48" transform="translate(671.609375 0)"/>
     </g>
    </g>
   </g>
  </g>
 </g>
 <defs>
  <clipPath id="p2026ed3191">
   <rect x="39.017031" y="21.558281" width="449.557656" height="294.198242"/>
  </clipPath>
 </defs>
</svg>
