<?xml version="1.0" encoding="utf-8" standalone="no"?>
<!DOCTYPE svg PUBLIC "-//W3C//DTD SVG 1.1//EN"
  "http://www.w3.org/Graphics/SVG/1.1/DTD/svg11.dtd">
<svg xmlns:xlink="http://www.w3.org/1999/xlink" width="567.774687pt" height="352.457305pt" viewBox="0 0 567.774687 352.457305" xmlns="http://www.w3.org/2000/svg" version="1.1">
 <metadata>
  <rdf:RDF xmlns:dc="http://purl.org/dc/elements/1.1/" xmlns:cc="http://creativecommons.org/ns#" xmlns:rdf="http://www.w3.org/1999/02/22-rdf-syntax-ns#">
   <cc:Work>
    <dc:type rdf:resource="http://purl.org/dc/dcmitype/StillImage"/>
    <dc:date>2026-06-14T17:19:56.141279</dc:date>
    <dc:format>image/svg+xml</dc:format>
    <dc:creator>
     <cc:Agent>
      <dc:title>Matplotlib v3.11.0, https://matplotlib.org/</dc:title>
     </cc:Agent>
    </dc:creator>
   </cc:Work>
  </rdf:RDF>
 </metadata>
 <defs>
  <style type="text/css">*{stroke-linejoin: round; stroke-linecap: butt}</style>
 </defs>
 <g id="figure_1">
  <g id="patch_1">
   <path d="M 0 352.457305 
L 567.774687 352.457305 
L 567.774687 0 
L 0 0 
z
" style="fill: #09090b"/>
  </g>
  <g id="axes_1">
   <g id="patch_2">
    <path d="M 39.017031 315.756523 
L 560.574687 315.756523 
L 560.574687 21.558281 
L 39.017031 21.558281 
z
" style="fill: #09090b"/>
   </g>
   <g id="PathCollection_1">
    <defs>
     <path id="mee0b49a247" d="M 0 2.738613 
C 0.726289 2.738613 1.422928 2.450055 1.936492 1.936492 
C 2.450055 1.422928 2.738613 0.726289 2.738613 0 
C 2.738613 -0.726289 2.450055 -1.422928 1.936492 -1.936492 
C 1.422928 -2.450055 0.726289 -2.738613 0 -2.738613 
C -0.726289 -2.738613 -1.422928 -2.450055 -1.936492 -1.936492 
C -2.450055 -1.422928 -2.738613 -0.726289 -2.738613 0 
C -2.738613 0.726289 -2.450055 1.422928 -1.936492 1.936492 
C -1.422928 2.450055 -0.726289 2.738613 0 2.738613 
z
" style="stroke: #fafafa; stroke-opacity: 0.65; stroke-width: 0.6"/>
    </defs>
    <g clip-path="url(#p925344760d)">
     <use xlink:href="#mee0b49a247" x="62.724197" y="302.383876" style="fill: #fafafa; fill-opacity: 0.65; stroke: #fafafa; stroke-opacity: 0.65; stroke-width: 0.6"/>
     <use xlink:href="#mee0b49a247" x="81.68993" y="34.930929" style="fill: #fafafa; fill-opacity: 0.65; stroke: #fafafa; stroke-opacity: 0.65; stroke-width: 0.6"/>
     <use xlink:href="#mee0b49a247" x="100.655663" y="34.930929" style="fill: #fafafa; fill-opacity: 0.65; stroke: #fafafa; stroke-opacity: 0.65; stroke-width: 0.6"/>
     <use xlink:href="#mee0b49a247" x="119.621396" y="34.930929" style="fill: #fafafa; fill-opacity: 0.65; stroke: #fafafa; stroke-opacity: 0.65; stroke-width: 0.6"/>
     <use xlink:href="#mee0b49a247" x="138.587129" y="34.930929" style="fill: #fafafa; fill-opacity: 0.65; stroke: #fafafa; stroke-opacity: 0.65; stroke-width: 0.6"/>
     <use xlink:href="#mee0b49a247" x="157.552862" y="34.930929" style="fill: #fafafa; fill-opacity: 0.65; stroke: #fafafa; stroke-opacity: 0.65; stroke-width: 0.6"/>
     <use xlink:href="#mee0b49a247" x="176.518595" y="34.930929" style="fill: #fafafa; fill-opacity: 0.65; stroke: #fafafa; stroke-opacity: 0.65; stroke-width: 0.6"/>
     <use xlink:href="#mee0b49a247" x="195.484328" y="34.930929" style="fill: #fafafa; fill-opacity: 0.65; stroke: #fafafa; stroke-opacity: 0.65; stroke-width: 0.6"/>
     <use xlink:href="#mee0b49a247" x="214.450061" y="34.930929" style="fill: #fafafa; fill-opacity: 0.65; stroke: #fafafa; stroke-opacity: 0.65; stroke-width: 0.6"/>
     <use xlink:href="#mee0b49a247" x="233.415794" y="34.930929" style="fill: #fafafa; fill-opacity: 0.65; stroke: #fafafa; stroke-opacity: 0.65; stroke-width: 0.6"/>
     <use xlink:href="#mee0b49a247" x="252.381527" y="34.930929" style="fill: #fafafa; fill-opacity: 0.65; stroke: #fafafa; stroke-opacity: 0.65; stroke-width: 0.6"/>
     <use xlink:href="#mee0b49a247" x="271.34726" y="34.930929" style="fill: #fafafa; fill-opacity: 0.65; stroke: #fafafa; stroke-opacity: 0.65; stroke-width: 0.6"/>
     <use xlink:href="#mee0b49a247" x="290.312993" y="34.930929" style="fill: #fafafa; fill-opacity: 0.65; stroke: #fafafa; stroke-opacity: 0.65; stroke-width: 0.6"/>
     <use xlink:href="#mee0b49a247" x="309.278726" y="34.930929" style="fill: #fafafa; fill-opacity: 0.65; stroke: #fafafa; stroke-opacity: 0.65; stroke-width: 0.6"/>
     <use xlink:href="#mee0b49a247" x="328.244459" y="34.930929" style="fill: #fafafa; fill-opacity: 0.65; stroke: #fafafa; stroke-opacity: 0.65; stroke-width: 0.6"/>
     <use xlink:href="#mee0b49a247" x="347.210192" y="34.930929" style="fill: #fafafa; fill-opacity: 0.65; stroke: #fafafa; stroke-opacity: 0.65; stroke-width: 0.6"/>
     <use xlink:href="#mee0b49a247" x="366.175925" y="34.930929" style="fill: #fafafa; fill-opacity: 0.65; stroke: #fafafa; stroke-opacity: 0.65; stroke-width: 0.6"/>
     <use xlink:href="#mee0b49a247" x="385.141658" y="34.930929" style="fill: #fafafa; fill-opacity: 0.65; stroke: #fafafa; stroke-opacity: 0.65; stroke-width: 0.6"/>
     <use xlink:href="#mee0b49a247" x="404.107391" y="34.930929" style="fill: #fafafa; fill-opacity: 0.65; stroke: #fafafa; stroke-opacity: 0.65; stroke-width: 0.6"/>
     <use xlink:href="#mee0b49a247" x="423.073124" y="34.930929" style="fill: #fafafa; fill-opacity: 0.65; stroke: #fafafa; stroke-opacity: 0.65; stroke-width: 0.6"/>
     <use xlink:href="#mee0b49a247" x="442.038857" y="34.930929" style="fill: #fafafa; fill-opacity: 0.65; stroke: #fafafa; stroke-opacity: 0.65; stroke-width: 0.6"/>
     <use xlink:href="#mee0b49a247" x="461.004589" y="34.930929" style="fill: #fafafa; fill-opacity: 0.65; stroke: #fafafa; stroke-opacity: 0.65; stroke-width: 0.6"/>
     <use xlink:href="#mee0b49a247" x="479.970322" y="34.930929" style="fill: #fafafa; fill-opacity: 0.65; stroke: #fafafa; stroke-opacity: 0.65; stroke-width: 0.6"/>
     <use xlink:href="#mee0b49a247" x="498.936055" y="275.638581" style="fill: #fafafa; fill-opacity: 0.65; stroke: #fafafa; stroke-opacity: 0.65; stroke-width: 0.6"/>
     <use xlink:href="#mee0b49a247" x="517.901788" y="275.638581" style="fill: #fafafa; fill-opacity: 0.65; stroke: #fafafa; stroke-opacity: 0.65; stroke-width: 0.6"/>
     <use xlink:href="#mee0b49a247" x="536.867521" y="34.930929" style="fill: #fafafa; fill-opacity: 0.65; stroke: #fafafa; stroke-opacity: 0.65; stroke-width: 0.6"/>
    </g>
   </g>
   <g id="PathCollection_2">
    <defs>
     <path id="m8670b44fb9" d="M 0 2.738613 
C 0.726289 2.738613 1.422928 2.450055 1.936492 1.936492 
C 2.450055 1.422928 2.738613 0.726289 2.738613 0 
C 2.738613 -0.726289 2.450055 -1.422928 1.936492 -1.936492 
C 1.422928 -2.450055 0.726289 -2.738613 0 -2.738613 
C -0.726289 -2.738613 -1.422928 -2.450055 -1.936492 -1.936492 
C -2.450055 -1.422928 -2.738613 -0.726289 -2.738613 0 
C -2.738613 0.726289 -2.450055 1.422928 -1.936492 1.936492 
C -1.422928 2.450055 -0.726289 2.738613 0 2.738613 
z
" style="stroke: #d4d4d8; stroke-opacity: 0.65; stroke-width: 0.6"/>
    </defs>
    <g clip-path="url(#p925344760d)">
     <use xlink:href="#m8670b44fb9" x="62.724197" y="302.383876" style="fill: #d4d4d8; fill-opacity: 0.65; stroke: #d4d4d8; stroke-opacity: 0.65; stroke-width: 0.6"/>
     <use xlink:href="#m8670b44fb9" x="92.358155" y="34.930929" style="fill: #d4d4d8; fill-opacity: 0.65; stroke: #d4d4d8; stroke-opacity: 0.65; stroke-width: 0.6"/>
     <use xlink:href="#m8670b44fb9" x="121.992113" y="34.930929" style="fill: #d4d4d8; fill-opacity: 0.65; stroke: #d4d4d8; stroke-opacity: 0.65; stroke-width: 0.6"/>
     <use xlink:href="#m8670b44fb9" x="151.626071" y="34.930929" style="fill: #d4d4d8; fill-opacity: 0.65; stroke: #d4d4d8; stroke-opacity: 0.65; stroke-width: 0.6"/>
     <use xlink:href="#m8670b44fb9" x="181.260028" y="34.930929" style="fill: #d4d4d8; fill-opacity: 0.65; stroke: #d4d4d8; stroke-opacity: 0.65; stroke-width: 0.6"/>
     <use xlink:href="#m8670b44fb9" x="210.893986" y="34.930929" style="fill: #d4d4d8; fill-opacity: 0.65; stroke: #d4d4d8; stroke-opacity: 0.65; stroke-width: 0.6"/>
     <use xlink:href="#m8670b44fb9" x="240.527944" y="34.930929" style="fill: #d4d4d8; fill-opacity: 0.65; stroke: #d4d4d8; stroke-opacity: 0.65; stroke-width: 0.6"/>
     <use xlink:href="#m8670b44fb9" x="270.161902" y="34.930929" style="fill: #d4d4d8; fill-opacity: 0.65; stroke: #d4d4d8; stroke-opacity: 0.65; stroke-width: 0.6"/>
     <use xlink:href="#m8670b44fb9" x="299.795859" y="34.930929" style="fill: #d4d4d8; fill-opacity: 0.65; stroke: #d4d4d8; stroke-opacity: 0.65; stroke-width: 0.6"/>
     <use xlink:href="#m8670b44fb9" x="329.429817" y="34.930929" style="fill: #d4d4d8; fill-opacity: 0.65; stroke: #d4d4d8; stroke-opacity: 0.65; stroke-width: 0.6"/>
     <use xlink:href="#m8670b44fb9" x="359.063775" y="34.930929" style="fill: #d4d4d8; fill-opacity: 0.65; stroke: #d4d4d8; stroke-opacity: 0.65; stroke-width: 0.6"/>
     <use xlink:href="#m8670b44fb9" x="388.697733" y="275.638581" style="fill: #d4d4d8; fill-opacity: 0.65; stroke: #d4d4d8; stroke-opacity: 0.65; stroke-width: 0.6"/>
     <use xlink:href="#m8670b44fb9" x="418.33169" y="34.930929" style="fill: #d4d4d8; fill-opacity: 0.65; stroke: #d4d4d8; stroke-opacity: 0.65; stroke-width: 0.6"/>
     <use xlink:href="#m8670b44fb9" x="447.965648" y="275.638581" style="fill: #d4d4d8; fill-opacity: 0.65; stroke: #d4d4d8; stroke-opacity: 0.65; stroke-width: 0.6"/>
     <use xlink:href="#m8670b44fb9" x="477.599606" y="34.930929" style="fill: #d4d4d8; fill-opacity: 0.65; stroke: #d4d4d8; stroke-opacity: 0.65; stroke-width: 0.6"/>
     <use xlink:href="#m8670b44fb9" x="507.233564" y="34.930929" style="fill: #d4d4d8; fill-opacity: 0.65; stroke: #d4d4d8; stroke-opacity: 0.65; stroke-width: 0.6"/>
     <use xlink:href="#m8670b44fb9" x="536.867521" y="34.930929" style="fill: #d4d4d8; fill-opacity: 0.65; stroke: #d4d4d8; stroke-opacity: 0.65; stroke-width: 0.6"/>
    </g>
   </g>
   <g id="PathCollection_3">
    <defs>
     <path id="md55d9b82a5" d="M 0 2.738613 
C 0.726289 2.738613 1.422928 2.450055 1.936492 1.936492 
C 2.450055 1.422928 2.738613 0.726289 2.738613 0 
C 2.738613 -0.726289 2.450055 -1.422928 1.936492 -1.936492 
C 1.422928 -2.450055 0.726289 -2.738613 0 -2.738613 
C -0.726289 -2.738613 -1.422928 -2.450055 -1.936492 -1.936492 
C -2.450055 -1.422928 -2.738613 -0.726289 -2.738613 0 
C -2.738613 0.726289 -2.450055 1.422928 -1.936492 1.936492 
C -1.422928 2.450055 -0.726289 2.738613 0 2.738613 
z
" style="stroke: #a1a1aa; stroke-opacity: 0.65; stroke-width: 0.6"/>
    </defs>
    <g clip-path="url(#p925344760d)">
     <use xlink:href="#md55d9b82a5" x="62.724197" y="302.383876" style="fill: #a1a1aa; fill-opacity: 0.65; stroke: #a1a1aa; stroke-opacity: 0.65; stroke-width: 0.6"/>
     <use xlink:href="#md55d9b82a5" x="79.073967" y="302.383876" style="fill: #a1a1aa; fill-opacity: 0.65; stroke: #a1a1aa; stroke-opacity: 0.65; stroke-width: 0.6"/>
     <use xlink:href="#md55d9b82a5" x="95.423737" y="302.383876" style="fill: #a1a1aa; fill-opacity: 0.65; stroke: #a1a1aa; stroke-opacity: 0.65; stroke-width: 0.6"/>
     <use xlink:href="#md55d9b82a5" x="111.773507" y="302.383876" style="fill: #a1a1aa; fill-opacity: 0.65; stroke: #a1a1aa; stroke-opacity: 0.65; stroke-width: 0.6"/>
     <use xlink:href="#md55d9b82a5" x="128.123277" y="34.930929" style="fill: #a1a1aa; fill-opacity: 0.65; stroke: #a1a1aa; stroke-opacity: 0.65; stroke-width: 0.6"/>
     <use xlink:href="#md55d9b82a5" x="144.473046" y="302.383876" style="fill: #a1a1aa; fill-opacity: 0.65; stroke: #a1a1aa; stroke-opacity: 0.65; stroke-width: 0.6"/>
     <use xlink:href="#md55d9b82a5" x="160.822816" y="302.383876" style="fill: #a1a1aa; fill-opacity: 0.65; stroke: #a1a1aa; stroke-opacity: 0.65; stroke-width: 0.6"/>
     <use xlink:href="#md55d9b82a5" x="177.172586" y="302.383876" style="fill: #a1a1aa; fill-opacity: 0.65; stroke: #a1a1aa; stroke-opacity: 0.65; stroke-width: 0.6"/>
     <use xlink:href="#md55d9b82a5" x="193.522356" y="34.930929" style="fill: #a1a1aa; fill-opacity: 0.65; stroke: #a1a1aa; stroke-opacity: 0.65; stroke-width: 0.6"/>
     <use xlink:href="#md55d9b82a5" x="209.872126" y="302.383876" style="fill: #a1a1aa; fill-opacity: 0.65; stroke: #a1a1aa; stroke-opacity: 0.65; stroke-width: 0.6"/>
     <use xlink:href="#md55d9b82a5" x="226.221895" y="302.383876" style="fill: #a1a1aa; fill-opacity: 0.65; stroke: #a1a1aa; stroke-opacity: 0.65; stroke-width: 0.6"/>
     <use xlink:href="#md55d9b82a5" x="242.571665" y="302.383876" style="fill: #a1a1aa; fill-opacity: 0.65; stroke: #a1a1aa; stroke-opacity: 0.65; stroke-width: 0.6"/>
     <use xlink:href="#md55d9b82a5" x="258.921435" y="34.930929" style="fill: #a1a1aa; fill-opacity: 0.65; stroke: #a1a1aa; stroke-opacity: 0.65; stroke-width: 0.6"/>
     <use xlink:href="#md55d9b82a5" x="275.271205" y="302.383876" style="fill: #a1a1aa; fill-opacity: 0.65; stroke: #a1a1aa; stroke-opacity: 0.65; stroke-width: 0.6"/>
     <use xlink:href="#md55d9b82a5" x="291.620974" y="302.383876" style="fill: #a1a1aa; fill-opacity: 0.65; stroke: #a1a1aa; stroke-opacity: 0.65; stroke-width: 0.6"/>
     <use xlink:href="#md55d9b82a5" x="307.970744" y="34.930929" style="fill: #a1a1aa; fill-opacity: 0.65; stroke: #a1a1aa; stroke-opacity: 0.65; stroke-width: 0.6"/>
     <use xlink:href="#md55d9b82a5" x="324.320514" y="302.383876" style="fill: #a1a1aa; fill-opacity: 0.65; stroke: #a1a1aa; stroke-opacity: 0.65; stroke-width: 0.6"/>
     <use xlink:href="#md55d9b82a5" x="340.670284" y="302.383876" style="fill: #a1a1aa; fill-opacity: 0.65; stroke: #a1a1aa; stroke-opacity: 0.65; stroke-width: 0.6"/>
     <use xlink:href="#md55d9b82a5" x="357.020054" y="34.930929" style="fill: #a1a1aa; fill-opacity: 0.65; stroke: #a1a1aa; stroke-opacity: 0.65; stroke-width: 0.6"/>
     <use xlink:href="#md55d9b82a5" x="373.369823" y="302.383876" style="fill: #a1a1aa; fill-opacity: 0.65; stroke: #a1a1aa; stroke-opacity: 0.65; stroke-width: 0.6"/>
     <use xlink:href="#md55d9b82a5" x="389.719593" y="302.383876" style="fill: #a1a1aa; fill-opacity: 0.65; stroke: #a1a1aa; stroke-opacity: 0.65; stroke-width: 0.6"/>
     <use xlink:href="#md55d9b82a5" x="406.069363" y="302.383876" style="fill: #a1a1aa; fill-opacity: 0.65; stroke: #a1a1aa; stroke-opacity: 0.65; stroke-width: 0.6"/>
     <use xlink:href="#md55d9b82a5" x="422.419133" y="34.930929" style="fill: #a1a1aa; fill-opacity: 0.65; stroke: #a1a1aa; stroke-opacity: 0.65; stroke-width: 0.6"/>
     <use xlink:href="#md55d9b82a5" x="438.768903" y="302.383876" style="fill: #a1a1aa; fill-opacity: 0.65; stroke: #a1a1aa; stroke-opacity: 0.65; stroke-width: 0.6"/>
     <use xlink:href="#md55d9b82a5" x="455.118672" y="302.383876" style="fill: #a1a1aa; fill-opacity: 0.65; stroke: #a1a1aa; stroke-opacity: 0.65; stroke-width: 0.6"/>
     <use xlink:href="#md55d9b82a5" x="471.468442" y="302.383876" style="fill: #a1a1aa; fill-opacity: 0.65; stroke: #a1a1aa; stroke-opacity: 0.65; stroke-width: 0.6"/>
     <use xlink:href="#md55d9b82a5" x="487.818212" y="275.638581" style="fill: #a1a1aa; fill-opacity: 0.65; stroke: #a1a1aa; stroke-opacity: 0.65; stroke-width: 0.6"/>
     <use xlink:href="#md55d9b82a5" x="504.167982" y="302.383876" style="fill: #a1a1aa; fill-opacity: 0.65; stroke: #a1a1aa; stroke-opacity: 0.65; stroke-width: 0.6"/>
     <use xlink:href="#md55d9b82a5" x="520.517752" y="302.383876" style="fill: #a1a1aa; fill-opacity: 0.65; stroke: #a1a1aa; stroke-opacity: 0.65; stroke-width: 0.6"/>
     <use xlink:href="#md55d9b82a5" x="536.867521" y="302.383876" style="fill: #a1a1aa; fill-opacity: 0.65; stroke: #a1a1aa; stroke-opacity: 0.65; stroke-width: 0.6"/>
    </g>
   </g>
   <g id="PathCollection_4">
    <defs>
     <path id="me675102fe5" d="M 0 2.738613 
C 0.726289 2.738613 1.422928 2.450055 1.936492 1.936492 
C 2.450055 1.422928 2.738613 0.726289 2.738613 0 
C 2.738613 -0.726289 2.450055 -1.422928 1.936492 -1.936492 
C 1.422928 -2.450055 0.726289 -2.738613 0 -2.738613 
C -0.726289 -2.738613 -1.422928 -2.450055 -1.936492 -1.936492 
C -2.450055 -1.422928 -2.738613 -0.726289 -2.738613 0 
C -2.738613 0.726289 -2.450055 1.422928 -1.936492 1.936492 
C -1.422928 2.450055 -0.726289 2.738613 0 2.738613 
z
" style="stroke: #916f6f; stroke-opacity: 0.65; stroke-width: 0.6"/>
    </defs>
    <g clip-path="url(#p925344760d)">
     <use xlink:href="#me675102fe5" x="62.724197" y="302.383876" style="fill: #916f6f; fill-opacity: 0.65; stroke: #916f6f; stroke-opacity: 0.65; stroke-width: 0.6"/>
     <use xlink:href="#me675102fe5" x="110.13853" y="275.638581" style="fill: #916f6f; fill-opacity: 0.65; stroke: #916f6f; stroke-opacity: 0.65; stroke-width: 0.6"/>
     <use xlink:href="#me675102fe5" x="157.552862" y="275.638581" style="fill: #916f6f; fill-opacity: 0.65; stroke: #916f6f; stroke-opacity: 0.65; stroke-width: 0.6"/>
     <use xlink:href="#me675102fe5" x="204.967195" y="34.930929" style="fill: #916f6f; fill-opacity: 0.65; stroke: #916f6f; stroke-opacity: 0.65; stroke-width: 0.6"/>
     <use xlink:href="#me675102fe5" x="252.381527" y="34.930929" style="fill: #916f6f; fill-opacity: 0.65; stroke: #916f6f; stroke-opacity: 0.65; stroke-width: 0.6"/>
     <use xlink:href="#me675102fe5" x="299.795859" y="34.930929" style="fill: #916f6f; fill-opacity: 0.65; stroke: #916f6f; stroke-opacity: 0.65; stroke-width: 0.6"/>
     <use xlink:href="#me675102fe5" x="347.210192" y="34.930929" style="fill: #916f6f; fill-opacity: 0.65; stroke: #916f6f; stroke-opacity: 0.65; stroke-width: 0.6"/>
     <use xlink:href="#me675102fe5" x="394.624524" y="34.930929" style="fill: #916f6f; fill-opacity: 0.65; stroke: #916f6f; stroke-opacity: 0.65; stroke-width: 0.6"/>
     <use xlink:href="#me675102fe5" x="442.038857" y="34.930929" style="fill: #916f6f; fill-opacity: 0.65; stroke: #916f6f; stroke-opacity: 0.65; stroke-width: 0.6"/>
     <use xlink:href="#me675102fe5" x="489.453189" y="34.930929" style="fill: #916f6f; fill-opacity: 0.65; stroke: #916f6f; stroke-opacity: 0.65; stroke-width: 0.6"/>
     <use xlink:href="#me675102fe5" x="536.867521" y="34.930929" style="fill: #916f6f; fill-opacity: 0.65; stroke: #916f6f; stroke-opacity: 0.65; stroke-width: 0.6"/>
    </g>
   </g>
   <g id="PathCollection_5">
    <defs>
     <path id="m891a3e7052" d="M 0 2.738613 
C 0.726289 2.738613 1.422928 2.450055 1.936492 1.936492 
C 2.450055 1.422928 2.738613 0.726289 2.738613 0 
C 2.738613 -0.726289 2.450055 -1.422928 1.936492 -1.936492 
C 1.422928 -2.450055 0.726289 -2.738613 0 -2.738613 
C -0.726289 -2.738613 -1.422928 -2.450055 -1.936492 -1.936492 
C -2.450055 -1.422928 -2.738613 -0.726289 -2.738613 0 
C -2.738613 0.726289 -2.450055 1.422928 -1.936492 1.936492 
C -1.422928 2.450055 -0.726289 2.738613 0 2.738613 
z
" style="stroke: #b89090; stroke-opacity: 0.65; stroke-width: 0.6"/>
    </defs>
    <g clip-path="url(#p925344760d)">
     <use xlink:href="#m891a3e7052" x="62.724197" y="302.383876" style="fill: #b89090; fill-opacity: 0.65; stroke: #b89090; stroke-opacity: 0.65; stroke-width: 0.6"/>
     <use xlink:href="#m891a3e7052" x="130.458958" y="34.930929" style="fill: #b89090; fill-opacity: 0.65; stroke: #b89090; stroke-opacity: 0.65; stroke-width: 0.6"/>
     <use xlink:href="#m891a3e7052" x="198.193719" y="34.930929" style="fill: #b89090; fill-opacity: 0.65; stroke: #b89090; stroke-opacity: 0.65; stroke-width: 0.6"/>
     <use xlink:href="#m891a3e7052" x="265.928479" y="34.930929" style="fill: #b89090; fill-opacity: 0.65; stroke: #b89090; stroke-opacity: 0.65; stroke-width: 0.6"/>
     <use xlink:href="#m891a3e7052" x="333.66324" y="34.930929" style="fill: #b89090; fill-opacity: 0.65; stroke: #b89090; stroke-opacity: 0.65; stroke-width: 0.6"/>
     <use xlink:href="#m891a3e7052" x="401.398" y="275.638581" style="fill: #b89090; fill-opacity: 0.65; stroke: #b89090; stroke-opacity: 0.65; stroke-width: 0.6"/>
     <use xlink:href="#m891a3e7052" x="469.132761" y="34.930929" style="fill: #b89090; fill-opacity: 0.65; stroke: #b89090; stroke-opacity: 0.65; stroke-width: 0.6"/>
     <use xlink:href="#m891a3e7052" x="536.867521" y="275.638581" style="fill: #b89090; fill-opacity: 0.65; stroke: #b89090; stroke-opacity: 0.65; stroke-width: 0.6"/>
    </g>
   </g>
   <g id="PathCollection_6">
    <defs>
     <path id="m70b2800c2e" d="M 0 2.738613 
C 0.726289 2.738613 1.422928 2.450055 1.936492 1.936492 
C 2.450055 1.422928 2.738613 0.726289 2.738613 0 
C 2.738613 -0.726289 2.450055 -1.422928 1.936492 -1.936492 
C 1.422928 -2.450055 0.726289 -2.738613 0 -2.738613 
C -0.726289 -2.738613 -1.422928 -2.450055 -1.936492 -1.936492 
C -2.450055 -1.422928 -2.738613 -0.726289 -2.738613 0 
C -2.738613 0.726289 -2.450055 1.422928 -1.936492 1.936492 
C -1.422928 2.450055 -0.726289 2.738613 0 2.738613 
z
" style="stroke: #999999; stroke-opacity: 0.65; stroke-width: 0.6"/>
    </defs>
    <g clip-path="url(#p925344760d)">
     <use xlink:href="#m70b2800c2e" x="62.724197" y="302.383876" style="fill: #999999; fill-opacity: 0.65; stroke: #999999; stroke-opacity: 0.65; stroke-width: 0.6"/>
     <use xlink:href="#m70b2800c2e" x="96.591578" y="34.930929" style="fill: #999999; fill-opacity: 0.65; stroke: #999999; stroke-opacity: 0.65; stroke-width: 0.6"/>
     <use xlink:href="#m70b2800c2e" x="130.458958" y="34.930929" style="fill: #999999; fill-opacity: 0.65; stroke: #999999; stroke-opacity: 0.65; stroke-width: 0.6"/>
     <use xlink:href="#m70b2800c2e" x="164.326338" y="34.930929" style="fill: #999999; fill-opacity: 0.65; stroke: #999999; stroke-opacity: 0.65; stroke-width: 0.6"/>
     <use xlink:href="#m70b2800c2e" x="198.193719" y="34.930929" style="fill: #999999; fill-opacity: 0.65; stroke: #999999; stroke-opacity: 0.65; stroke-width: 0.6"/>
     <use xlink:href="#m70b2800c2e" x="232.061099" y="34.930929" style="fill: #999999; fill-opacity: 0.65; stroke: #999999; stroke-opacity: 0.65; stroke-width: 0.6"/>
     <use xlink:href="#m70b2800c2e" x="265.928479" y="34.930929" style="fill: #999999; fill-opacity: 0.65; stroke: #999999; stroke-opacity: 0.65; stroke-width: 0.6"/>
     <use xlink:href="#m70b2800c2e" x="299.795859" y="275.638581" style="fill: #999999; fill-opacity: 0.65; stroke: #999999; stroke-opacity: 0.65; stroke-width: 0.6"/>
     <use xlink:href="#m70b2800c2e" x="333.66324" y="34.930929" style="fill: #999999; fill-opacity: 0.65; stroke: #999999; stroke-opacity: 0.65; stroke-width: 0.6"/>
     <use xlink:href="#m70b2800c2e" x="367.53062" y="34.930929" style="fill: #999999; fill-opacity: 0.65; stroke: #999999; stroke-opacity: 0.65; stroke-width: 0.6"/>
     <use xlink:href="#m70b2800c2e" x="401.398" y="34.930929" style="fill: #999999; fill-opacity: 0.65; stroke: #999999; stroke-opacity: 0.65; stroke-width: 0.6"/>
     <use xlink:href="#m70b2800c2e" x="435.26538" y="34.930929" style="fill: #999999; fill-opacity: 0.65; stroke: #999999; stroke-opacity: 0.65; stroke-width: 0.6"/>
     <use xlink:href="#m70b2800c2e" x="469.132761" y="34.930929" style="fill: #999999; fill-opacity: 0.65; stroke: #999999; stroke-opacity: 0.65; stroke-width: 0.6"/>
     <use xlink:href="#m70b2800c2e" x="503.000141" y="34.930929" style="fill: #999999; fill-opacity: 0.65; stroke: #999999; stroke-opacity: 0.65; stroke-width: 0.6"/>
     <use xlink:href="#m70b2800c2e" x="536.867521" y="275.638581" style="fill: #999999; fill-opacity: 0.65; stroke: #999999; stroke-opacity: 0.65; stroke-width: 0.6"/>
    </g>
   </g>
   <g id="PathCollection_7">
    <defs>
     <path id="m5dca93cdd8" d="M 0 2.738613 
C 0.726289 2.738613 1.422928 2.450055 1.936492 1.936492 
C 2.450055 1.422928 2.738613 0.726289 2.738613 0 
C 2.738613 -0.726289 2.450055 -1.422928 1.936492 -1.936492 
C 1.422928 -2.450055 0.726289 -2.738613 0 -2.738613 
C -0.726289 -2.738613 -1.422928 -2.450055 -1.936492 -1.936492 
C -2.450055 -1.422928 -2.738613 -0.726289 -2.738613 0 
C -2.738613 0.726289 -2.450055 1.422928 -1.936492 1.936492 
C -1.422928 2.450055 -0.726289 2.738613 0 2.738613 
z
" style="stroke: #71717a; stroke-opacity: 0.65; stroke-width: 0.6"/>
    </defs>
    <g clip-path="url(#p925344760d)">
     <use xlink:href="#m5dca93cdd8" x="62.724197" y="302.383876" style="fill: #71717a; fill-opacity: 0.65; stroke: #71717a; stroke-opacity: 0.65; stroke-width: 0.6"/>
     <use xlink:href="#m5dca93cdd8" x="81.68993" y="302.383876" style="fill: #71717a; fill-opacity: 0.65; stroke: #71717a; stroke-opacity: 0.65; stroke-width: 0.6"/>
     <use xlink:href="#m5dca93cdd8" x="100.655663" y="302.383876" style="fill: #71717a; fill-opacity: 0.65; stroke: #71717a; stroke-opacity: 0.65; stroke-width: 0.6"/>
     <use xlink:href="#m5dca93cdd8" x="119.621396" y="302.383876" style="fill: #71717a; fill-opacity: 0.65; stroke: #71717a; stroke-opacity: 0.65; stroke-width: 0.6"/>
     <use xlink:href="#m5dca93cdd8" x="138.587129" y="302.383876" style="fill: #71717a; fill-opacity: 0.65; stroke: #71717a; stroke-opacity: 0.65; stroke-width: 0.6"/>
     <use xlink:href="#m5dca93cdd8" x="157.552862" y="302.383876" style="fill: #71717a; fill-opacity: 0.65; stroke: #71717a; stroke-opacity: 0.65; stroke-width: 0.6"/>
     <use xlink:href="#m5dca93cdd8" x="176.518595" y="302.383876" style="fill: #71717a; fill-opacity: 0.65; stroke: #71717a; stroke-opacity: 0.65; stroke-width: 0.6"/>
     <use xlink:href="#m5dca93cdd8" x="195.484328" y="34.930929" style="fill: #71717a; fill-opacity: 0.65; stroke: #71717a; stroke-opacity: 0.65; stroke-width: 0.6"/>
     <use xlink:href="#m5dca93cdd8" x="214.450061" y="302.383876" style="fill: #71717a; fill-opacity: 0.65; stroke: #71717a; stroke-opacity: 0.65; stroke-width: 0.6"/>
     <use xlink:href="#m5dca93cdd8" x="233.415794" y="302.383876" style="fill: #71717a; fill-opacity: 0.65; stroke: #71717a; stroke-opacity: 0.65; stroke-width: 0.6"/>
     <use xlink:href="#m5dca93cdd8" x="252.381527" y="302.383876" style="fill: #71717a; fill-opacity: 0.65; stroke: #71717a; stroke-opacity: 0.65; stroke-width: 0.6"/>
     <use xlink:href="#m5dca93cdd8" x="271.34726" y="302.383876" style="fill: #71717a; fill-opacity: 0.65; stroke: #71717a; stroke-opacity: 0.65; stroke-width: 0.6"/>
     <use xlink:href="#m5dca93cdd8" x="290.312993" y="302.383876" style="fill: #71717a; fill-opacity: 0.65; stroke: #71717a; stroke-opacity: 0.65; stroke-width: 0.6"/>
     <use xlink:href="#m5dca93cdd8" x="309.278726" y="34.930929" style="fill: #71717a; fill-opacity: 0.65; stroke: #71717a; stroke-opacity: 0.65; stroke-width: 0.6"/>
     <use xlink:href="#m5dca93cdd8" x="328.244459" y="302.383876" style="fill: #71717a; fill-opacity: 0.65; stroke: #71717a; stroke-opacity: 0.65; stroke-width: 0.6"/>
     <use xlink:href="#m5dca93cdd8" x="347.210192" y="302.383876" style="fill: #71717a; fill-opacity: 0.65; stroke: #71717a; stroke-opacity: 0.65; stroke-width: 0.6"/>
     <use xlink:href="#m5dca93cdd8" x="366.175925" y="302.383876" style="fill: #71717a; fill-opacity: 0.65; stroke: #71717a; stroke-opacity: 0.65; stroke-width: 0.6"/>
     <use xlink:href="#m5dca93cdd8" x="385.141658" y="34.930929" style="fill: #71717a; fill-opacity: 0.65; stroke: #71717a; stroke-opacity: 0.65; stroke-width: 0.6"/>
     <use xlink:href="#m5dca93cdd8" x="404.107391" y="302.383876" style="fill: #71717a; fill-opacity: 0.65; stroke: #71717a; stroke-opacity: 0.65; stroke-width: 0.6"/>
     <use xlink:href="#m5dca93cdd8" x="423.073124" y="302.383876" style="fill: #71717a; fill-opacity: 0.65; stroke: #71717a; stroke-opacity: 0.65; stroke-width: 0.6"/>
     <use xlink:href="#m5dca93cdd8" x="442.038857" y="34.930929" style="fill: #71717a; fill-opacity: 0.65; stroke: #71717a; stroke-opacity: 0.65; stroke-width: 0.6"/>
     <use xlink:href="#m5dca93cdd8" x="461.004589" y="302.383876" style="fill: #71717a; fill-opacity: 0.65; stroke: #71717a; stroke-opacity: 0.65; stroke-width: 0.6"/>
     <use xlink:href="#m5dca93cdd8" x="479.970322" y="302.383876" style="fill: #71717a; fill-opacity: 0.65; stroke: #71717a; stroke-opacity: 0.65; stroke-width: 0.6"/>
     <use xlink:href="#m5dca93cdd8" x="498.936055" y="302.383876" style="fill: #71717a; fill-opacity: 0.65; stroke: #71717a; stroke-opacity: 0.65; stroke-width: 0.6"/>
     <use xlink:href="#m5dca93cdd8" x="517.901788" y="302.383876" style="fill: #71717a; fill-opacity: 0.65; stroke: #71717a; stroke-opacity: 0.65; stroke-width: 0.6"/>
     <use xlink:href="#m5dca93cdd8" x="536.867521" y="302.383876" style="fill: #71717a; fill-opacity: 0.65; stroke: #71717a; stroke-opacity: 0.65; stroke-width: 0.6"/>
    </g>
   </g>
   <g id="matplotlib.axis_1">
    <g id="xtick_1">
     <g id="line2d_1">
      <defs>
       <path id="md4d49c5939" d="M 0 0 
L 0 3.5 
" style="stroke: #a1a1aa; stroke-width: 0.8"/>
      </defs>
      <g>
       <use xlink:href="#md4d49c5939" x="62.724197" y="315.756523" style="fill: #a1a1aa; stroke: #a1a1aa; stroke-width: 0.8"/>
      </g>
     </g>
     <g id="text_1">
      <!-- 0.0 -->
      <g style="fill: #a1a1aa" transform="translate(55.965369 329.214531) scale(0.085 -0.085)">
       <defs>
        <path id="DejaVuSans-13" d="M 2034 4250 
Q 1547 4250 1301 3770 
Q 1056 3291 1056 2328 
Q 1056 1369 1301 889 
Q 1547 409 2034 409 
Q 2525 409 2770 889 
Q 3016 1369 3016 2328 
Q 3016 3291 2770 3770 
Q 2525 4250 2034 4250 
z
M 2034 4750 
Q 2819 4750 3233 4129 
Q 3647 3509 3647 2328 
Q 3647 1150 3233 529 
Q 2819 -91 2034 -91 
Q 1250 -91 836 529 
Q 422 1150 422 2328 
Q 422 3509 836 4129 
Q 1250 4750 2034 4750 
z
" transform="scale(0.015625)"/>
        <path id="DejaVuSans-11" d="M 684 794 
L 1344 794 
L 1344 0 
L 684 0 
L 684 794 
z
" transform="scale(0.015625)"/>
       </defs>
       <use xlink:href="#DejaVuSans-13"/>
       <use xlink:href="#DejaVuSans-11" transform="translate(63.625 0)"/>
       <use xlink:href="#DejaVuSans-13" transform="translate(95.40625 0)"/>
      </g>
     </g>
    </g>
    <g id="xtick_2">
     <g id="line2d_2">
      <g>
       <use xlink:href="#md4d49c5939" x="157.552862" y="315.756523" style="fill: #a1a1aa; stroke: #a1a1aa; stroke-width: 0.8"/>
      </g>
     </g>
     <g id="text_2">
      <!-- 0.2 -->
      <g style="fill: #a1a1aa" transform="translate(150.794034 329.214531) scale(0.085 -0.085)">
       <defs>
        <path id="DejaVuSans-15" d="M 1228 531 
L 3431 531 
L 3431 0 
L 469 0 
L 469 531 
Q 828 903 1448 1529 
Q 2069 2156 2228 2338 
Q 2531 2678 2651 2914 
Q 2772 3150 2772 3378 
Q 2772 3750 2511 3984 
Q 2250 4219 1831 4219 
Q 1534 4219 1204 4116 
Q 875 4013 500 3803 
L 500 4441 
Q 881 4594 1212 4672 
Q 1544 4750 1819 4750 
Q 2544 4750 2975 4387 
Q 3406 4025 3406 3419 
Q 3406 3131 3298 2873 
Q 3191 2616 2906 2266 
Q 2828 2175 2409 1742 
Q 1991 1309 1228 531 
z
" transform="scale(0.015625)"/>
       </defs>
       <use xlink:href="#DejaVuSans-13"/>
       <use xlink:href="#DejaVuSans-11" transform="translate(63.625 0)"/>
       <use xlink:href="#DejaVuSans-15" transform="translate(95.40625 0)"/>
      </g>
     </g>
    </g>
    <g id="xtick_3">
     <g id="line2d_3">
      <g>
       <use xlink:href="#md4d49c5939" x="252.381527" y="315.756523" style="fill: #a1a1aa; stroke: #a1a1aa; stroke-width: 0.8"/>
      </g>
     </g>
     <g id="text_3">
      <!-- 0.4 -->
      <g style="fill: #a1a1aa" transform="translate(245.622699 329.214531) scale(0.085 -0.085)">
       <defs>
        <path id="DejaVuSans-17" d="M 2419 4116 
L 825 1625 
L 2419 1625 
L 2419 4116 
z
M 2253 4666 
L 3047 4666 
L 3047 1625 
L 3713 1625 
L 3713 1100 
L 3047 1100 
L 3047 0 
L 2419 0 
L 2419 1100 
L 313 1100 
L 313 1709 
L 2253 4666 
z
" transform="scale(0.015625)"/>
       </defs>
       <use xlink:href="#DejaVuSans-13"/>
       <use xlink:href="#DejaVuSans-11" transform="translate(63.625 0)"/>
       <use xlink:href="#DejaVuSans-17" transform="translate(95.40625 0)"/>
      </g>
     </g>
    </g>
    <g id="xtick_4">
     <g id="line2d_4">
      <g>
       <use xlink:href="#md4d49c5939" x="347.210192" y="315.756523" style="fill: #a1a1aa; stroke: #a1a1aa; stroke-width: 0.8"/>
      </g>
     </g>
     <g id="text_4">
      <!-- 0.6 -->
      <g style="fill: #a1a1aa" transform="translate(340.451364 329.214531) scale(0.085 -0.085)">
       <defs>
        <path id="DejaVuSans-19" d="M 2113 2584 
Q 1688 2584 1439 2293 
Q 1191 2003 1191 1497 
Q 1191 994 1439 701 
Q 1688 409 2113 409 
Q 2538 409 2786 701 
Q 3034 994 3034 1497 
Q 3034 2003 2786 2293 
Q 2538 2584 2113 2584 
z
M 3366 4563 
L 3366 3988 
Q 3128 4100 2886 4159 
Q 2644 4219 2406 4219 
Q 1781 4219 1451 3797 
Q 1122 3375 1075 2522 
Q 1259 2794 1537 2939 
Q 1816 3084 2150 3084 
Q 2853 3084 3261 2657 
Q 3669 2231 3669 1497 
Q 3669 778 3244 343 
Q 2819 -91 2113 -91 
Q 1303 -91 875 529 
Q 447 1150 447 2328 
Q 447 3434 972 4092 
Q 1497 4750 2381 4750 
Q 2619 4750 2861 4703 
Q 3103 4656 3366 4563 
z
" transform="scale(0.015625)"/>
       </defs>
       <use xlink:href="#DejaVuSans-13"/>
       <use xlink:href="#DejaVuSans-11" transform="translate(63.625 0)"/>
       <use xlink:href="#DejaVuSans-19" transform="translate(95.40625 0)"/>
      </g>
     </g>
    </g>
    <g id="xtick_5">
     <g id="line2d_5">
      <g>
       <use xlink:href="#md4d49c5939" x="442.038857" y="315.756523" style="fill: #a1a1aa; stroke: #a1a1aa; stroke-width: 0.8"/>
      </g>
     </g>
     <g id="text_5">
      <!-- 0.8 -->
      <g style="fill: #a1a1aa" transform="translate(435.280028 329.214531) scale(0.085 -0.085)">
       <defs>
        <path id="DejaVuSans-1b" d="M 2034 2216 
Q 1584 2216 1326 1975 
Q 1069 1734 1069 1313 
Q 1069 891 1326 650 
Q 1584 409 2034 409 
Q 2484 409 2743 651 
Q 3003 894 3003 1313 
Q 3003 1734 2745 1975 
Q 2488 2216 2034 2216 
z
M 1403 2484 
Q 997 2584 770 2862 
Q 544 3141 544 3541 
Q 544 4100 942 4425 
Q 1341 4750 2034 4750 
Q 2731 4750 3128 4425 
Q 3525 4100 3525 3541 
Q 3525 3141 3298 2862 
Q 3072 2584 2669 2484 
Q 3125 2378 3379 2068 
Q 3634 1759 3634 1313 
Q 3634 634 3220 271 
Q 2806 -91 2034 -91 
Q 1263 -91 848 271 
Q 434 634 434 1313 
Q 434 1759 690 2068 
Q 947 2378 1403 2484 
z
M 1172 3481 
Q 1172 3119 1398 2916 
Q 1625 2713 2034 2713 
Q 2441 2713 2670 2916 
Q 2900 3119 2900 3481 
Q 2900 3844 2670 4047 
Q 2441 4250 2034 4250 
Q 1625 4250 1398 4047 
Q 1172 3844 1172 3481 
z
" transform="scale(0.015625)"/>
       </defs>
       <use xlink:href="#DejaVuSans-13"/>
       <use xlink:href="#DejaVuSans-11" transform="translate(63.625 0)"/>
       <use xlink:href="#DejaVuSans-1b" transform="translate(95.40625 0)"/>
      </g>
     </g>
    </g>
    <g id="xtick_6">
     <g id="line2d_6">
      <g>
       <use xlink:href="#md4d49c5939" x="536.867521" y="315.756523" style="fill: #a1a1aa; stroke: #a1a1aa; stroke-width: 0.8"/>
      </g>
     </g>
     <g id="text_6">
      <!-- 1.0 -->
      <g style="fill: #a1a1aa" transform="translate(530.108693 329.214531) scale(0.085 -0.085)">
       <defs>
        <path id="DejaVuSans-14" d="M 794 531 
L 1825 531 
L 1825 4091 
L 703 3866 
L 703 4441 
L 1819 4666 
L 2450 4666 
L 2450 531 
L 3481 531 
L 3481 0 
L 794 0 
L 794 531 
z
" transform="scale(0.015625)"/>
       </defs>
       <use xlink:href="#DejaVuSans-14"/>
       <use xlink:href="#DejaVuSans-11" transform="translate(63.625 0)"/>
       <use xlink:href="#DejaVuSans-13" transform="translate(95.40625 0)"/>
      </g>
     </g>
    </g>
    <g id="text_7">
     <!-- Normalised Visit Order per Maze (0 = first tile, 1 = last tile) -->
     <g style="fill: #fafafa" transform="translate(151.492734 342.854961) scale(0.1 -0.1)">
      <defs>
       <path id="DejaVuSans-31" d="M 628 4666 
L 1478 4666 
L 3547 763 
L 3547 4666 
L 4159 4666 
L 4159 0 
L 3309 0 
L 1241 3903 
L 1241 0 
L 628 0 
L 628 4666 
z
" transform="scale(0.015625)"/>
       <path id="DejaVuSans-52" d="M 1959 3097 
Q 1497 3097 1228 2736 
Q 959 2375 959 1747 
Q 959 1119 1226 758 
Q 1494 397 1959 397 
Q 2419 397 2687 759 
Q 2956 1122 2956 1747 
Q 2956 2369 2687 2733 
Q 2419 3097 1959 3097 
z
M 1959 3584 
Q 2709 3584 3137 3096 
Q 3566 2609 3566 1747 
Q 3566 888 3137 398 
Q 2709 -91 1959 -91 
Q 1206 -91 779 398 
Q 353 888 353 1747 
Q 353 2609 779 3096 
Q 1206 3584 1959 3584 
z
" transform="scale(0.015625)"/>
       <path id="DejaVuSans-55" d="M 2631 2963 
Q 2534 3019 2420 3045 
Q 2306 3072 2169 3072 
Q 1681 3072 1420 2755 
Q 1159 2438 1159 1844 
L 1159 0 
L 581 0 
L 581 3500 
L 1159 3500 
L 1159 2956 
Q 1341 3275 1631 3429 
Q 1922 3584 2338 3584 
Q 2397 3584 2469 3576 
Q 2541 3569 2628 3553 
L 2631 2963 
z
" transform="scale(0.015625)"/>
       <path id="DejaVuSans-50" d="M 3328 2828 
Q 3544 3216 3844 3400 
Q 4144 3584 4550 3584 
Q 5097 3584 5394 3201 
Q 5691 2819 5691 2113 
L 5691 0 
L 5113 0 
L 5113 2094 
Q 5113 2597 4934 2840 
Q 4756 3084 4391 3084 
Q 3944 3084 3684 2787 
Q 3425 2491 3425 1978 
L 3425 0 
L 2847 0 
L 2847 2094 
Q 2847 2600 2669 2842 
Q 2491 3084 2119 3084 
Q 1678 3084 1418 2786 
Q 1159 2488 1159 1978 
L 1159 0 
L 581 0 
L 581 3500 
L 1159 3500 
L 1159 2956 
Q 1356 3278 1631 3431 
Q 1906 3584 2284 3584 
Q 2666 3584 2933 3390 
Q 3200 3197 3328 2828 
z
" transform="scale(0.015625)"/>
       <path id="DejaVuSans-44" d="M 2194 1759 
Q 1497 1759 1228 1600 
Q 959 1441 959 1056 
Q 959 750 1161 570 
Q 1363 391 1709 391 
Q 2188 391 2477 730 
Q 2766 1069 2766 1631 
L 2766 1759 
L 2194 1759 
z
M 3341 1997 
L 3341 0 
L 2766 0 
L 2766 531 
Q 2569 213 2275 61 
Q 1981 -91 1556 -91 
Q 1019 -91 701 211 
Q 384 513 384 1019 
Q 384 1609 779 1909 
Q 1175 2209 1959 2209 
L 2766 2209 
L 2766 2266 
Q 2766 2663 2505 2880 
Q 2244 3097 1772 3097 
Q 1472 3097 1187 3025 
Q 903 2953 641 2809 
L 641 3341 
Q 956 3463 1253 3523 
Q 1550 3584 1831 3584 
Q 2591 3584 2966 3190 
Q 3341 2797 3341 1997 
z
" transform="scale(0.015625)"/>
       <path id="DejaVuSans-4f" d="M 603 4863 
L 1178 4863 
L 1178 0 
L 603 0 
L 603 4863 
z
" transform="scale(0.015625)"/>
       <path id="DejaVuSans-4c" d="M 603 3500 
L 1178 3500 
L 1178 0 
L 603 0 
L 603 3500 
z
M 603 4863 
L 1178 4863 
L 1178 4134 
L 603 4134 
L 603 4863 
z
" transform="scale(0.015625)"/>
       <path id="DejaVuSans-56" d="M 2834 3397 
L 2834 2853 
Q 2591 2978 2328 3040 
Q 2066 3103 1784 3103 
Q 1356 3103 1142 2972 
Q 928 2841 928 2578 
Q 928 2378 1081 2264 
Q 1234 2150 1697 2047 
L 1894 2003 
Q 2506 1872 2764 1633 
Q 3022 1394 3022 966 
Q 3022 478 2636 193 
Q 2250 -91 1575 -91 
Q 1294 -91 989 -36 
Q 684 19 347 128 
L 347 722 
Q 666 556 975 473 
Q 1284 391 1588 391 
Q 1994 391 2212 530 
Q 2431 669 2431 922 
Q 2431 1156 2273 1281 
Q 2116 1406 1581 1522 
L 1381 1569 
Q 847 1681 609 1914 
Q 372 2147 372 2553 
Q 372 3047 722 3315 
Q 1072 3584 1716 3584 
Q 2034 3584 2315 3537 
Q 2597 3491 2834 3397 
z
" transform="scale(0.015625)"/>
       <path id="DejaVuSans-48" d="M 3597 1894 
L 3597 1613 
L 953 1613 
Q 991 1019 1311 708 
Q 1631 397 2203 397 
Q 2534 397 2845 478 
Q 3156 559 3463 722 
L 3463 178 
Q 3153 47 2828 -22 
Q 2503 -91 2169 -91 
Q 1331 -91 842 396 
Q 353 884 353 1716 
Q 353 2575 817 3079 
Q 1281 3584 2069 3584 
Q 2775 3584 3186 3129 
Q 3597 2675 3597 1894 
z
M 3022 2063 
Q 3016 2534 2758 2815 
Q 2500 3097 2075 3097 
Q 1594 3097 1305 2825 
Q 1016 2553 972 2059 
L 3022 2063 
z
" transform="scale(0.015625)"/>
       <path id="DejaVuSans-47" d="M 2906 2969 
L 2906 4863 
L 3481 4863 
L 3481 0 
L 2906 0 
L 2906 525 
Q 2725 213 2448 61 
Q 2172 -91 1784 -91 
Q 1150 -91 751 415 
Q 353 922 353 1747 
Q 353 2572 751 3078 
Q 1150 3584 1784 3584 
Q 2172 3584 2448 3432 
Q 2725 3281 2906 2969 
z
M 947 1747 
Q 947 1113 1208 752 
Q 1469 391 1925 391 
Q 2381 391 2643 752 
Q 2906 1113 2906 1747 
Q 2906 2381 2643 2742 
Q 2381 3103 1925 3103 
Q 1469 3103 1208 2742 
Q 947 2381 947 1747 
z
" transform="scale(0.015625)"/>
       <path id="DejaVuSans-3" transform="scale(0.015625)"/>
       <path id="DejaVuSans-39" d="M 1831 0 
L 50 4666 
L 709 4666 
L 2188 738 
L 3669 4666 
L 4325 4666 
L 2547 0 
L 1831 0 
z
" transform="scale(0.015625)"/>
       <path id="DejaVuSans-57" d="M 1172 4494 
L 1172 3500 
L 2356 3500 
L 2356 3053 
L 1172 3053 
L 1172 1153 
Q 1172 725 1289 603 
Q 1406 481 1766 481 
L 2356 481 
L 2356 0 
L 1766 0 
Q 1100 0 847 248 
Q 594 497 594 1153 
L 594 3053 
L 172 3053 
L 172 3500 
L 594 3500 
L 594 4494 
L 1172 4494 
z
" transform="scale(0.015625)"/>
       <path id="DejaVuSans-32" d="M 2522 4238 
Q 1834 4238 1429 3725 
Q 1025 3213 1025 2328 
Q 1025 1447 1429 934 
Q 1834 422 2522 422 
Q 3209 422 3611 934 
Q 4013 1447 4013 2328 
Q 4013 3213 3611 3725 
Q 3209 4238 2522 4238 
z
M 2522 4750 
Q 3503 4750 4090 4092 
Q 4678 3434 4678 2328 
Q 4678 1225 4090 567 
Q 3503 -91 2522 -91 
Q 1538 -91 948 565 
Q 359 1222 359 2328 
Q 359 3434 948 4092 
Q 1538 4750 2522 4750 
z
" transform="scale(0.015625)"/>
       <path id="DejaVuSans-53" d="M 1159 525 
L 1159 -1331 
L 581 -1331 
L 581 3500 
L 1159 3500 
L 1159 2969 
Q 1341 3281 1617 3432 
Q 1894 3584 2278 3584 
Q 2916 3584 3314 3078 
Q 3713 2572 3713 1747 
Q 3713 922 3314 415 
Q 2916 -91 2278 -91 
Q 1894 -91 1617 61 
Q 1341 213 1159 525 
z
M 3116 1747 
Q 3116 2381 2855 2742 
Q 2594 3103 2138 3103 
Q 1681 3103 1420 2742 
Q 1159 2381 1159 1747 
Q 1159 1113 1420 752 
Q 1681 391 2138 391 
Q 2594 391 2855 752 
Q 3116 1113 3116 1747 
z
" transform="scale(0.015625)"/>
       <path id="DejaVuSans-30" d="M 628 4666 
L 1569 4666 
L 2759 1491 
L 3956 4666 
L 4897 4666 
L 4897 0 
L 4281 0 
L 4281 4097 
L 3078 897 
L 2444 897 
L 1241 4097 
L 1241 0 
L 628 0 
L 628 4666 
z
" transform="scale(0.015625)"/>
       <path id="DejaVuSans-5d" d="M 353 3500 
L 3084 3500 
L 3084 2975 
L 922 459 
L 3084 459 
L 3084 0 
L 275 0 
L 275 525 
L 2438 3041 
L 353 3041 
L 353 3500 
z
" transform="scale(0.015625)"/>
       <path id="DejaVuSans-b" d="M 1984 4856 
Q 1566 4138 1362 3434 
Q 1159 2731 1159 2009 
Q 1159 1288 1364 580 
Q 1569 -128 1984 -844 
L 1484 -844 
Q 1016 -109 783 600 
Q 550 1309 550 2009 
Q 550 2706 781 3412 
Q 1013 4119 1484 4856 
L 1984 4856 
z
" transform="scale(0.015625)"/>
       <path id="DejaVuSans-20" d="M 678 2906 
L 4684 2906 
L 4684 2381 
L 678 2381 
L 678 2906 
z
M 678 1631 
L 4684 1631 
L 4684 1100 
L 678 1100 
L 678 1631 
z
" transform="scale(0.015625)"/>
       <path id="DejaVuSans-13af" d="M 3431 3500 
L 3431 0 
L 2853 0 
L 2853 3053 
L 1275 3053 
L 1275 0 
L 697 0 
L 697 3053 
L 147 3053 
L 147 3500 
L 697 3500 
L 697 3744 
Q 697 4316 967 4589 
Q 1238 4863 1797 4863 
L 2375 4863 
L 2375 4384 
L 1825 4384 
Q 1516 4384 1395 4259 
Q 1275 4134 1275 3809 
L 1275 3500 
L 3431 3500 
z
M 2853 4856 
L 3431 4856 
L 3431 4128 
L 2853 4128 
L 2853 4856 
z
" transform="scale(0.015625)"/>
       <path id="DejaVuSans-f" d="M 750 794 
L 1409 794 
L 1409 256 
L 897 -744 
L 494 -744 
L 750 256 
L 750 794 
z
" transform="scale(0.015625)"/>
       <path id="DejaVuSans-c" d="M 513 4856 
L 1013 4856 
Q 1481 4119 1714 3412 
Q 1947 2706 1947 2009 
Q 1947 1309 1714 600 
Q 1481 -109 1013 -844 
L 513 -844 
Q 928 -128 1133 580 
Q 1338 1288 1338 2009 
Q 1338 2731 1133 3434 
Q 928 4138 513 4856 
z
" transform="scale(0.015625)"/>
      </defs>
      <use xlink:href="#DejaVuSans-31"/>
      <use xlink:href="#DejaVuSans-52" transform="translate(74.8125 0)"/>
      <use xlink:href="#DejaVuSans-55" transform="translate(136 0)"/>
      <use xlink:href="#DejaVuSans-50" transform="translate(175.359375 0)"/>
      <use xlink:href="#DejaVuSans-44" transform="translate(272.765625 0)"/>
      <use xlink:href="#DejaVuSans-4f" transform="translate(334.046875 0)"/>
      <use xlink:href="#DejaVuSans-4c" transform="translate(361.828125 0)"/>
      <use xlink:href="#DejaVuSans-56" transform="translate(389.609375 0)"/>
      <use xlink:href="#DejaVuSans-48" transform="translate(441.703125 0)"/>
      <use xlink:href="#DejaVuSans-47" transform="translate(503.234375 0)"/>
      <use xlink:href="#DejaVuSans-3" transform="translate(566.71875 0)"/>
      <use xlink:href="#DejaVuSans-39" transform="translate(598.5 0)"/>
      <use xlink:href="#DejaVuSans-4c" transform="translate(664.703125 0)"/>
      <use xlink:href="#DejaVuSans-56" transform="translate(692.484375 0)"/>
      <use xlink:href="#DejaVuSans-4c" transform="translate(744.578125 0)"/>
      <use xlink:href="#DejaVuSans-57" transform="translate(772.359375 0)"/>
      <use xlink:href="#DejaVuSans-3" transform="translate(811.5625 0)"/>
      <use xlink:href="#DejaVuSans-32" transform="translate(843.34375 0)"/>
      <use xlink:href="#DejaVuSans-55" transform="translate(922.0625 0)"/>
      <use xlink:href="#DejaVuSans-47" transform="translate(961.421875 0)"/>
      <use xlink:href="#DejaVuSans-48" transform="translate(1024.90625 0)"/>
      <use xlink:href="#DejaVuSans-55" transform="translate(1086.4375 0)"/>
      <use xlink:href="#DejaVuSans-3" transform="translate(1127.546875 0)"/>
      <use xlink:href="#DejaVuSans-53" transform="translate(1159.328125 0)"/>
      <use xlink:href="#DejaVuSans-48" transform="translate(1222.8125 0)"/>
      <use xlink:href="#DejaVuSans-55" transform="translate(1284.34375 0)"/>
      <use xlink:href="#DejaVuSans-3" transform="translate(1325.453125 0)"/>
      <use xlink:href="#DejaVuSans-30" transform="translate(1357.234375 0)"/>
      <use xlink:href="#DejaVuSans-44" transform="translate(1443.515625 0)"/>
      <use xlink:href="#DejaVuSans-5d" transform="translate(1504.796875 0)"/>
      <use xlink:href="#DejaVuSans-48" transform="translate(1557.28125 0)"/>
      <use xlink:href="#DejaVuSans-3" transform="translate(1618.8125 0)"/>
      <use xlink:href="#DejaVuSans-b" transform="translate(1650.59375 0)"/>
      <use xlink:href="#DejaVuSans-13" transform="translate(1689.609375 0)"/>
      <use xlink:href="#DejaVuSans-3" transform="translate(1753.234375 0)"/>
      <use xlink:href="#DejaVuSans-20" transform="translate(1785.015625 0)"/>
      <use xlink:href="#DejaVuSans-3" transform="translate(1868.8125 0)"/>
      <use xlink:href="#DejaVuSans-13af" transform="translate(1900.59375 0)"/>
      <use xlink:href="#DejaVuSans-55" transform="translate(1963.578125 0)"/>
      <use xlink:href="#DejaVuSans-56" transform="translate(2004.6875 0)"/>
      <use xlink:href="#DejaVuSans-57" transform="translate(2056.78125 0)"/>
      <use xlink:href="#DejaVuSans-3" transform="translate(2095.984375 0)"/>
      <use xlink:href="#DejaVuSans-57" transform="translate(2127.765625 0)"/>
      <use xlink:href="#DejaVuSans-4c" transform="translate(2166.96875 0)"/>
      <use xlink:href="#DejaVuSans-4f" transform="translate(2194.75 0)"/>
      <use xlink:href="#DejaVuSans-48" transform="translate(2222.53125 0)"/>
      <use xlink:href="#DejaVuSans-f" transform="translate(2284.0625 0)"/>
      <use xlink:href="#DejaVuSans-3" transform="translate(2315.84375 0)"/>
      <use xlink:href="#DejaVuSans-14" transform="translate(2347.625 0)"/>
      <use xlink:href="#DejaVuSans-3" transform="translate(2411.25 0)"/>
      <use xlink:href="#DejaVuSans-20" transform="translate(2443.03125 0)"/>
      <use xlink:href="#DejaVuSans-3" transform="translate(2526.828125 0)"/>
      <use xlink:href="#DejaVuSans-4f" transform="translate(2558.609375 0)"/>
      <use xlink:href="#DejaVuSans-44" transform="translate(2586.390625 0)"/>
      <use xlink:href="#DejaVuSans-56" transform="translate(2647.671875 0)"/>
      <use xlink:href="#DejaVuSans-57" transform="translate(2699.765625 0)"/>
      <use xlink:href="#DejaVuSans-3" transform="translate(2738.96875 0)"/>
      <use xlink:href="#DejaVuSans-57" transform="translate(2770.75 0)"/>
      <use xlink:href="#DejaVuSans-4c" transform="translate(2809.953125 0)"/>
      <use xlink:href="#DejaVuSans-4f" transform="translate(2837.734375 0)"/>
      <use xlink:href="#DejaVuSans-48" transform="translate(2865.515625 0)"/>
      <use xlink:href="#DejaVuSans-c" transform="translate(2927.046875 0)"/>
     </g>
    </g>
   </g>
   <g id="matplotlib.axis_2">
    <g id="ytick_1">
     <g id="line2d_7">
      <defs>
       <path id="mf3732d9347" d="M 0 0 
L -3.5 0 
" style="stroke: #a1a1aa; stroke-width: 0.8"/>
      </defs>
      <g>
       <use xlink:href="#mf3732d9347" x="39.017031" y="302.383876" style="fill: #a1a1aa; stroke: #a1a1aa; stroke-width: 0.8"/>
      </g>
     </g>
     <g id="text_8">
      <!-- 0 -->
      <g style="fill: #a1a1aa" transform="translate(26.608906 305.61288) scale(0.085 -0.085)">
       <use xlink:href="#DejaVuSans-13"/>
      </g>
     </g>
    </g>
    <g id="ytick_2">
     <g id="line2d_8">
      <g>
       <use xlink:href="#mf3732d9347" x="39.017031" y="248.893287" style="fill: #a1a1aa; stroke: #a1a1aa; stroke-width: 0.8"/>
      </g>
     </g>
     <g id="text_9">
      <!-- 2 -->
      <g style="fill: #a1a1aa" transform="translate(26.608906 252.12229) scale(0.085 -0.085)">
       <use xlink:href="#DejaVuSans-15"/>
      </g>
     </g>
    </g>
    <g id="ytick_3">
     <g id="line2d_9">
      <g>
       <use xlink:href="#mf3732d9347" x="39.017031" y="195.402697" style="fill: #a1a1aa; stroke: #a1a1aa; stroke-width: 0.8"/>
      </g>
     </g>
     <g id="text_10">
      <!-- 4 -->
      <g style="fill: #a1a1aa" transform="translate(26.608906 198.631701) scale(0.085 -0.085)">
       <use xlink:href="#DejaVuSans-17"/>
      </g>
     </g>
    </g>
    <g id="ytick_4">
     <g id="line2d_10">
      <g>
       <use xlink:href="#mf3732d9347" x="39.017031" y="141.912108" style="fill: #a1a1aa; stroke: #a1a1aa; stroke-width: 0.8"/>
      </g>
     </g>
     <g id="text_11">
      <!-- 6 -->
      <g style="fill: #a1a1aa" transform="translate(26.608906 145.141112) scale(0.085 -0.085)">
       <use xlink:href="#DejaVuSans-19"/>
      </g>
     </g>
    </g>
    <g id="ytick_5">
     <g id="line2d_11">
      <g>
       <use xlink:href="#mf3732d9347" x="39.017031" y="88.421518" style="fill: #a1a1aa; stroke: #a1a1aa; stroke-width: 0.8"/>
      </g>
     </g>
     <g id="text_12">
      <!-- 8 -->
      <g style="fill: #a1a1aa" transform="translate(26.608906 91.650522) scale(0.085 -0.085)">
       <use xlink:href="#DejaVuSans-1b"/>
      </g>
     </g>
    </g>
    <g id="ytick_6">
     <g id="line2d_12">
      <g>
       <use xlink:href="#mf3732d9347" x="39.017031" y="34.930929" style="fill: #a1a1aa; stroke: #a1a1aa; stroke-width: 0.8"/>
      </g>
     </g>
     <g id="text_13">
      <!-- 10 -->
      <g style="fill: #a1a1aa" transform="translate(21.200781 38.159933) scale(0.085 -0.085)">
       <use xlink:href="#DejaVuSans-14"/>
       <use xlink:href="#DejaVuSans-13" transform="translate(63.625 0)"/>
      </g>
     </g>
    </g>
    <g id="text_14">
     <!-- Reward -->
     <g style="fill: #fafafa" transform="translate(14.798438 187.279277) rotate(-90) scale(0.1 -0.1)">
      <defs>
       <path id="DejaVuSans-35" d="M 2841 2188 
Q 3044 2119 3236 1894 
Q 3428 1669 3622 1275 
L 4263 0 
L 3584 0 
L 2988 1197 
Q 2756 1666 2539 1819 
Q 2322 1972 1947 1972 
L 1259 1972 
L 1259 0 
L 628 0 
L 628 4666 
L 2053 4666 
Q 2853 4666 3247 4331 
Q 3641 3997 3641 3322 
Q 3641 2881 3436 2590 
Q 3231 2300 2841 2188 
z
M 1259 4147 
L 1259 2491 
L 2053 2491 
Q 2509 2491 2742 2702 
Q 2975 2913 2975 3322 
Q 2975 3731 2742 3939 
Q 2509 4147 2053 4147 
L 1259 4147 
z
" transform="scale(0.015625)"/>
       <path id="DejaVuSans-5a" d="M 269 3500 
L 844 3500 
L 1563 769 
L 2278 3500 
L 2956 3500 
L 3675 769 
L 4391 3500 
L 4966 3500 
L 4050 0 
L 3372 0 
L 2619 2869 
L 1863 0 
L 1184 0 
L 269 3500 
z
" transform="scale(0.015625)"/>
      </defs>
      <use xlink:href="#DejaVuSans-35"/>
      <use xlink:href="#DejaVuSans-48" transform="translate(65 0)"/>
      <use xlink:href="#DejaVuSans-5a" transform="translate(126.53125 0)"/>
      <use xlink:href="#DejaVuSans-44" transform="translate(208.3125 0)"/>
      <use xlink:href="#DejaVuSans-55" transform="translate(269.59375 0)"/>
      <use xlink:href="#DejaVuSans-47" transform="translate(308.953125 0)"/>
     </g>
    </g>
   </g>
   <g id="line2d_13">
    <path d="M 62.724197 164.482695 
L 67.513524 164.298909 
L 72.30285 164.115123 
L 77.092177 163.931338 
L 81.881503 163.747552 
L 86.67083 163.563766 
L 91.460156 163.37998 
L 96.249483 163.196195 
L 101.038809 163.012409 
L 105.828136 162.828623 
L 110.617462 162.644837 
L 115.406789 162.461052 
L 120.196115 162.277266 
L 124.985442 162.09348 
L 129.774768 161.909695 
L 134.564095 161.725909 
L 139.353422 161.542123 
L 144.142748 161.358337 
L 148.932075 161.174552 
L 153.721401 160.990766 
L 158.510728 160.80698 
L 163.300054 160.623194 
L 168.089381 160.439409 
L 172.878707 160.255623 
L 177.668034 160.071837 
L 182.45736 159.888052 
L 187.246687 159.704266 
L 192.036013 159.52048 
L 196.82534 159.336694 
L 201.614666 159.152909 
L 206.403993 158.969123 
L 211.193319 158.785337 
L 215.982646 158.601551 
L 220.771972 158.417766 
L 225.561299 158.23398 
L 230.350625 158.050194 
L 235.139952 157.866409 
L 239.929278 157.682623 
L 244.718605 157.498837 
L 249.507931 157.315051 
L 254.297258 157.131266 
L 259.086584 156.94748 
L 263.875911 156.763694 
L 268.665237 156.579908 
L 273.454564 156.396123 
L 278.24389 156.212337 
L 283.033217 156.028551 
L 287.822543 155.844766 
L 292.61187 155.66098 
L 297.401196 155.477194 
L 302.190523 155.293408 
L 306.979849 155.109623 
L 311.769176 154.925837 
L 316.558502 154.742051 
L 321.347829 154.558265 
L 326.137155 154.37448 
L 330.926482 154.190694 
L 335.715808 154.006908 
L 340.505135 153.823123 
L 345.294461 153.639337 
L 350.083788 153.455551 
L 354.873114 153.271765 
L 359.662441 153.08798 
L 364.451767 152.904194 
L 369.241094 152.720408 
L 374.03042 152.536622 
L 378.819747 152.352837 
L 383.609073 152.169051 
L 388.3984 151.985265 
L 393.187726 151.80148 
L 397.977053 151.617694 
L 402.766379 151.433908 
L 407.555706 151.250122 
L 412.345032 151.066337 
L 417.134359 150.882551 
L 421.923685 150.698765 
L 426.713012 150.514979 
L 431.502338 150.331194 
L 436.291665 150.147408 
L 441.080991 149.963622 
L 445.870318 149.779837 
L 450.659644 149.596051 
L 455.448971 149.412265 
L 460.238297 149.228479 
L 465.027624 149.044694 
L 469.81695 148.860908 
L 474.606277 148.677122 
L 479.395603 148.493336 
L 484.18493 148.309551 
L 488.974256 148.125765 
L 493.763583 147.941979 
L 498.552909 147.758193 
L 503.342236 147.574408 
L 508.131562 147.390622 
L 512.920889 147.206836 
L 517.710215 147.023051 
L 522.499542 146.839265 
L 527.288868 146.655479 
L 532.078195 146.471693 
L 536.867521 146.287908 
" clip-path="url(#p925344760d)" style="fill: none; stroke-dasharray: 7.4,3.2; stroke-dashoffset: 0; stroke: #fafafa; stroke-width: 2"/>
   </g>
   <g id="patch_3">
    <path d="M 39.017031 315.756523 
L 39.017031 21.558281 
" style="fill: none; stroke: #27272a; stroke-width: 0.8; stroke-linejoin: miter; stroke-linecap: square"/>
   </g>
   <g id="patch_4">
    <path d="M 39.017031 315.756523 
L 560.574687 315.756523 
" style="fill: none; stroke: #27272a; stroke-width: 0.8; stroke-linejoin: miter; stroke-linecap: square"/>
   </g>
   <g id="text_15">
    <!-- Reward vs Normalised Distance from Start -->
    <g style="fill: #fafafa" transform="translate(167.479609 15.558281) scale(0.11 -0.11)">
     <defs>
      <path id="DejaVuSans-Bold-35" d="M 2297 2597 
Q 2675 2597 2839 2737 
Q 3003 2878 3003 3200 
Q 3003 3519 2839 3656 
Q 2675 3794 2297 3794 
L 1791 3794 
L 1791 2597 
L 2297 2597 
z
M 1791 1766 
L 1791 0 
L 588 0 
L 588 4666 
L 2425 4666 
Q 3347 4666 3776 4356 
Q 4206 4047 4206 3378 
Q 4206 2916 3982 2619 
Q 3759 2322 3309 2181 
Q 3556 2125 3751 1926 
Q 3947 1728 4147 1325 
L 4800 0 
L 3519 0 
L 2950 1159 
Q 2778 1509 2601 1637 
Q 2425 1766 2131 1766 
L 1791 1766 
z
" transform="scale(0.015625)"/>
      <path id="DejaVuSans-Bold-48" d="M 4031 1759 
L 4031 1441 
L 1416 1441 
Q 1456 1047 1700 850 
Q 1944 653 2381 653 
Q 2734 653 3104 758 
Q 3475 863 3866 1075 
L 3866 213 
Q 3469 63 3072 -14 
Q 2675 -91 2278 -91 
Q 1328 -91 801 392 
Q 275 875 275 1747 
Q 275 2603 792 3093 
Q 1309 3584 2216 3584 
Q 3041 3584 3536 3087 
Q 4031 2591 4031 1759 
z
M 2881 2131 
Q 2881 2450 2695 2645 
Q 2509 2841 2209 2841 
Q 1884 2841 1681 2658 
Q 1478 2475 1428 2131 
L 2881 2131 
z
" transform="scale(0.015625)"/>
      <path id="DejaVuSans-Bold-5a" d="M 225 3500 
L 1313 3500 
L 1900 1088 
L 2491 3500 
L 3425 3500 
L 4013 1113 
L 4603 3500 
L 5691 3500 
L 4769 0 
L 3547 0 
L 2956 2406 
L 2369 0 
L 1147 0 
L 225 3500 
z
" transform="scale(0.015625)"/>
      <path id="DejaVuSans-Bold-44" d="M 2106 1575 
Q 1756 1575 1579 1456 
Q 1403 1338 1403 1106 
Q 1403 894 1545 773 
Q 1688 653 1941 653 
Q 2256 653 2472 879 
Q 2688 1106 2688 1447 
L 2688 1575 
L 2106 1575 
z
M 3816 1997 
L 3816 0 
L 2688 0 
L 2688 519 
Q 2463 200 2181 54 
Q 1900 -91 1497 -91 
Q 953 -91 614 226 
Q 275 544 275 1050 
Q 275 1666 698 1953 
Q 1122 2241 2028 2241 
L 2688 2241 
L 2688 2328 
Q 2688 2594 2478 2717 
Q 2269 2841 1825 2841 
Q 1466 2841 1156 2769 
Q 847 2697 581 2553 
L 581 3406 
Q 941 3494 1303 3539 
Q 1666 3584 2028 3584 
Q 2975 3584 3395 3211 
Q 3816 2838 3816 1997 
z
" transform="scale(0.015625)"/>
      <path id="DejaVuSans-Bold-55" d="M 3138 2547 
Q 2991 2616 2845 2648 
Q 2700 2681 2553 2681 
Q 2122 2681 1889 2404 
Q 1656 2128 1656 1613 
L 1656 0 
L 538 0 
L 538 3500 
L 1656 3500 
L 1656 2925 
Q 1872 3269 2151 3426 
Q 2431 3584 2822 3584 
Q 2878 3584 2943 3579 
Q 3009 3575 3134 3559 
L 3138 2547 
z
" transform="scale(0.015625)"/>
      <path id="DejaVuSans-Bold-47" d="M 2919 2988 
L 2919 4863 
L 4044 4863 
L 4044 0 
L 2919 0 
L 2919 506 
Q 2688 197 2409 53 
Q 2131 -91 1766 -91 
Q 1119 -91 703 423 
Q 288 938 288 1747 
Q 288 2556 703 3070 
Q 1119 3584 1766 3584 
Q 2128 3584 2408 3439 
Q 2688 3294 2919 2988 
z
M 2181 722 
Q 2541 722 2730 984 
Q 2919 1247 2919 1747 
Q 2919 2247 2730 2509 
Q 2541 2772 2181 2772 
Q 1825 2772 1636 2509 
Q 1447 2247 1447 1747 
Q 1447 1247 1636 984 
Q 1825 722 2181 722 
z
" transform="scale(0.015625)"/>
      <path id="DejaVuSans-Bold-3" transform="scale(0.015625)"/>
      <path id="DejaVuSans-Bold-59" d="M 97 3500 
L 1216 3500 
L 2088 1081 
L 2956 3500 
L 4078 3500 
L 2700 0 
L 1472 0 
L 97 3500 
z
" transform="scale(0.015625)"/>
      <path id="DejaVuSans-Bold-56" d="M 3272 3391 
L 3272 2541 
Q 2913 2691 2578 2766 
Q 2244 2841 1947 2841 
Q 1628 2841 1473 2761 
Q 1319 2681 1319 2516 
Q 1319 2381 1436 2309 
Q 1553 2238 1856 2203 
L 2053 2175 
Q 2913 2066 3209 1816 
Q 3506 1566 3506 1031 
Q 3506 472 3093 190 
Q 2681 -91 1863 -91 
Q 1516 -91 1145 -36 
Q 775 19 384 128 
L 384 978 
Q 719 816 1070 734 
Q 1422 653 1784 653 
Q 2113 653 2278 743 
Q 2444 834 2444 1013 
Q 2444 1163 2330 1236 
Q 2216 1309 1875 1350 
L 1678 1375 
Q 931 1469 631 1722 
Q 331 1975 331 2491 
Q 331 3047 712 3315 
Q 1094 3584 1881 3584 
Q 2191 3584 2531 3537 
Q 2872 3491 3272 3391 
z
" transform="scale(0.015625)"/>
      <path id="DejaVuSans-Bold-31" d="M 588 4666 
L 1931 4666 
L 3628 1466 
L 3628 4666 
L 4769 4666 
L 4769 0 
L 3425 0 
L 1728 3200 
L 1728 0 
L 588 0 
L 588 4666 
z
" transform="scale(0.015625)"/>
      <path id="DejaVuSans-Bold-52" d="M 2203 2784 
Q 1831 2784 1636 2517 
Q 1441 2250 1441 1747 
Q 1441 1244 1636 976 
Q 1831 709 2203 709 
Q 2569 709 2762 976 
Q 2956 1244 2956 1747 
Q 2956 2250 2762 2517 
Q 2569 2784 2203 2784 
z
M 2203 3584 
Q 3106 3584 3614 3096 
Q 4122 2609 4122 1747 
Q 4122 884 3614 396 
Q 3106 -91 2203 -91 
Q 1297 -91 786 396 
Q 275 884 275 1747 
Q 275 2609 786 3096 
Q 1297 3584 2203 3584 
z
" transform="scale(0.015625)"/>
      <path id="DejaVuSans-Bold-50" d="M 3781 2919 
Q 3994 3244 4286 3414 
Q 4578 3584 4928 3584 
Q 5531 3584 5847 3212 
Q 6163 2841 6163 2131 
L 6163 0 
L 5038 0 
L 5038 1825 
Q 5041 1866 5042 1909 
Q 5044 1953 5044 2034 
Q 5044 2406 4934 2573 
Q 4825 2741 4581 2741 
Q 4263 2741 4089 2478 
Q 3916 2216 3909 1719 
L 3909 0 
L 2784 0 
L 2784 1825 
Q 2784 2406 2684 2573 
Q 2584 2741 2328 2741 
Q 2006 2741 1831 2477 
Q 1656 2213 1656 1722 
L 1656 0 
L 531 0 
L 531 3500 
L 1656 3500 
L 1656 2988 
Q 1863 3284 2130 3434 
Q 2397 3584 2719 3584 
Q 3081 3584 3359 3409 
Q 3638 3234 3781 2919 
z
" transform="scale(0.015625)"/>
      <path id="DejaVuSans-Bold-4f" d="M 538 4863 
L 1656 4863 
L 1656 0 
L 538 0 
L 538 4863 
z
" transform="scale(0.015625)"/>
      <path id="DejaVuSans-Bold-4c" d="M 538 3500 
L 1656 3500 
L 1656 0 
L 538 0 
L 538 3500 
z
M 538 4863 
L 1656 4863 
L 1656 3950 
L 538 3950 
L 538 4863 
z
" transform="scale(0.015625)"/>
      <path id="DejaVuSans-Bold-27" d="M 1791 3756 
L 1791 909 
L 2222 909 
Q 2959 909 3348 1275 
Q 3738 1641 3738 2338 
Q 3738 3031 3350 3393 
Q 2963 3756 2222 3756 
L 1791 3756 
z
M 588 4666 
L 1856 4666 
Q 2919 4666 3439 4514 
Q 3959 4363 4331 4000 
Q 4659 3684 4818 3271 
Q 4978 2859 4978 2338 
Q 4978 1809 4818 1395 
Q 4659 981 4331 666 
Q 3956 303 3431 151 
Q 2906 0 1856 0 
L 588 0 
L 588 4666 
z
" transform="scale(0.015625)"/>
      <path id="DejaVuSans-Bold-57" d="M 1759 4494 
L 1759 3500 
L 2913 3500 
L 2913 2700 
L 1759 2700 
L 1759 1216 
Q 1759 972 1856 886 
Q 1953 800 2241 800 
L 2816 800 
L 2816 0 
L 1856 0 
Q 1194 0 917 276 
Q 641 553 641 1216 
L 641 2700 
L 84 2700 
L 84 3500 
L 641 3500 
L 641 4494 
L 1759 4494 
z
" transform="scale(0.015625)"/>
      <path id="DejaVuSans-Bold-51" d="M 4056 2131 
L 4056 0 
L 2931 0 
L 2931 347 
L 2931 1631 
Q 2931 2084 2911 2256 
Q 2891 2428 2841 2509 
Q 2775 2619 2662 2680 
Q 2550 2741 2406 2741 
Q 2056 2741 1856 2470 
Q 1656 2200 1656 1722 
L 1656 0 
L 538 0 
L 538 3500 
L 1656 3500 
L 1656 2988 
Q 1909 3294 2193 3439 
Q 2478 3584 2822 3584 
Q 3428 3584 3742 3212 
Q 4056 2841 4056 2131 
z
" transform="scale(0.015625)"/>
      <path id="DejaVuSans-Bold-46" d="M 3366 3391 
L 3366 2478 
Q 3138 2634 2908 2709 
Q 2678 2784 2431 2784 
Q 1963 2784 1702 2511 
Q 1441 2238 1441 1747 
Q 1441 1256 1702 982 
Q 1963 709 2431 709 
Q 2694 709 2930 787 
Q 3166 866 3366 1019 
L 3366 103 
Q 3103 6 2833 -42 
Q 2563 -91 2291 -91 
Q 1344 -91 809 395 
Q 275 881 275 1747 
Q 275 2613 809 3098 
Q 1344 3584 2291 3584 
Q 2566 3584 2833 3536 
Q 3100 3488 3366 3391 
z
" transform="scale(0.015625)"/>
      <path id="DejaVuSans-Bold-49" d="M 2841 4863 
L 2841 4128 
L 2222 4128 
Q 1984 4128 1890 4042 
Q 1797 3956 1797 3744 
L 1797 3500 
L 2753 3500 
L 2753 2700 
L 1797 2700 
L 1797 0 
L 678 0 
L 678 2700 
L 122 2700 
L 122 3500 
L 678 3500 
L 678 3744 
Q 678 4316 997 4589 
Q 1316 4863 1984 4863 
L 2841 4863 
z
" transform="scale(0.015625)"/>
      <path id="DejaVuSans-Bold-36" d="M 3834 4519 
L 3834 3531 
Q 3450 3703 3084 3790 
Q 2719 3878 2394 3878 
Q 1963 3878 1756 3759 
Q 1550 3641 1550 3391 
Q 1550 3203 1689 3098 
Q 1828 2994 2194 2919 
L 2706 2816 
Q 3484 2659 3812 2340 
Q 4141 2022 4141 1434 
Q 4141 663 3683 286 
Q 3225 -91 2284 -91 
Q 1841 -91 1394 -6 
Q 947 78 500 244 
L 500 1259 
Q 947 1022 1364 901 
Q 1781 781 2169 781 
Q 2563 781 2772 912 
Q 2981 1044 2981 1288 
Q 2981 1506 2839 1625 
Q 2697 1744 2272 1838 
L 1806 1941 
Q 1106 2091 782 2419 
Q 459 2747 459 3303 
Q 459 4000 909 4375 
Q 1359 4750 2203 4750 
Q 2588 4750 2994 4692 
Q 3400 4634 3834 4519 
z
" transform="scale(0.015625)"/>
     </defs>
     <use xlink:href="#DejaVuSans-Bold-35"/>
     <use xlink:href="#DejaVuSans-Bold-48" transform="translate(77 0)"/>
     <use xlink:href="#DejaVuSans-Bold-5a" transform="translate(144.828125 0)"/>
     <use xlink:href="#DejaVuSans-Bold-44" transform="translate(237.21875 0)"/>
     <use xlink:href="#DejaVuSans-Bold-55" transform="translate(304.703125 0)"/>
     <use xlink:href="#DejaVuSans-Bold-47" transform="translate(354.015625 0)"/>
     <use xlink:href="#DejaVuSans-Bold-3" transform="translate(425.59375 0)"/>
     <use xlink:href="#DejaVuSans-Bold-59" transform="translate(460.40625 0)"/>
     <use xlink:href="#DejaVuSans-Bold-56" transform="translate(525.59375 0)"/>
     <use xlink:href="#DejaVuSans-Bold-3" transform="translate(585.109375 0)"/>
     <use xlink:href="#DejaVuSans-Bold-31" transform="translate(619.921875 0)"/>
     <use xlink:href="#DejaVuSans-Bold-52" transform="translate(703.609375 0)"/>
     <use xlink:href="#DejaVuSans-Bold-55" transform="translate(772.3125 0)"/>
     <use xlink:href="#DejaVuSans-Bold-50" transform="translate(821.625 0)"/>
     <use xlink:href="#DejaVuSans-Bold-44" transform="translate(925.828125 0)"/>
     <use xlink:href="#DejaVuSans-Bold-4f" transform="translate(993.3125 0)"/>
     <use xlink:href="#DejaVuSans-Bold-4c" transform="translate(1027.59375 0)"/>
     <use xlink:href="#DejaVuSans-Bold-56" transform="translate(1061.875 0)"/>
     <use xlink:href="#DejaVuSans-Bold-48" transform="translate(1121.390625 0)"/>
     <use xlink:href="#DejaVuSans-Bold-47" transform="translate(1189.21875 0)"/>
     <use xlink:href="#DejaVuSans-Bold-3" transform="translate(1260.796875 0)"/>
     <use xlink:href="#DejaVuSans-Bold-27" transform="translate(1295.609375 0)"/>
     <use xlink:href="#DejaVuSans-Bold-4c" transform="translate(1378.625 0)"/>
     <use xlink:href="#DejaVuSans-Bold-56" transform="translate(1412.90625 0)"/>
     <use xlink:href="#DejaVuSans-Bold-57" transform="translate(1472.421875 0)"/>
     <use xlink:href="#DejaVuSans-Bold-44" transform="translate(1520.21875 0)"/>
     <use xlink:href="#DejaVuSans-Bold-51" transform="translate(1587.703125 0)"/>
     <use xlink:href="#DejaVuSans-Bold-46" transform="translate(1658.890625 0)"/>
     <use xlink:href="#DejaVuSans-Bold-48" transform="translate(1718.171875 0)"/>
     <use xlink:href="#DejaVuSans-Bold-3" transform="translate(1786 0)"/>
     <use xlink:href="#DejaVuSans-Bold-49" transform="translate(1820.8125 0)"/>
     <use xlink:href="#DejaVuSans-Bold-55" transform="translate(1864.3125 0)"/>
     <use xlink:href="#DejaVuSans-Bold-52" transform="translate(1913.625 0)"/>
     <use xlink:href="#DejaVuSans-Bold-50" transform="translate(1982.328125 0)"/>
     <use xlink:href="#DejaVuSans-Bold-3" transform="translate(2086.53125 0)"/>
     <use xlink:href="#DejaVuSans-Bold-36" transform="translate(2121.34375 0)"/>
     <use xlink:href="#DejaVuSans-Bold-57" transform="translate(2193.359375 0)"/>
     <use xlink:href="#DejaVuSans-Bold-44" transform="translate(2241.15625 0)"/>
     <use xlink:href="#DejaVuSans-Bold-55" transform="translate(2308.640625 0)"/>
     <use xlink:href="#DejaVuSans-Bold-57" transform="translate(2357.953125 0)"/>
    </g>
   </g>
   <g id="legend_1">
    <g id="patch_5">
     <path d="M 445.294531 111.162656 
L 555.674688 111.162656 
Q 557.074688 111.162656 557.074688 109.762656 
L 557.074688 26.458281 
Q 557.074688 25.058281 555.674688 25.058281 
L 445.294531 25.058281 
Q 443.894531 25.058281 443.894531 26.458281 
L 443.894531 109.762656 
Q 443.894531 111.162656 445.294531 111.162656 
z
" style="fill: #18181b; opacity: 0.9; stroke: #27272a; stroke-width: 0.6; stroke-linejoin: miter"/>
    </g>
    <g id="PathCollection_8">
     <g>
      <use xlink:href="#mee0b49a247" x="453.694531" y="31.339687" style="fill: #fafafa; fill-opacity: 0.65; stroke: #fafafa; stroke-opacity: 0.65; stroke-width: 0.6"/>
     </g>
    </g>
    <g id="text_16">
     <!-- Dig Down -->
     <g style="fill: #fafafa" transform="translate(466.294531 33.177187) scale(0.07 -0.07)">
      <defs>
       <path id="DejaVuSans-27" d="M 1259 4147 
L 1259 519 
L 2022 519 
Q 2988 519 3436 956 
Q 3884 1394 3884 2338 
Q 3884 3275 3436 3711 
Q 2988 4147 2022 4147 
L 1259 4147 
z
M 628 4666 
L 1925 4666 
Q 3281 4666 3915 4102 
Q 4550 3538 4550 2338 
Q 4550 1131 3912 565 
Q 3275 0 1925 0 
L 628 0 
L 628 4666 
z
" transform="scale(0.015625)"/>
       <path id="DejaVuSans-4a" d="M 2906 1791 
Q 2906 2416 2648 2759 
Q 2391 3103 1925 3103 
Q 1463 3103 1205 2759 
Q 947 2416 947 1791 
Q 947 1169 1205 825 
Q 1463 481 1925 481 
Q 2391 481 2648 825 
Q 2906 1169 2906 1791 
z
M 3481 434 
Q 3481 -459 3084 -895 
Q 2688 -1331 1869 -1331 
Q 1566 -1331 1297 -1286 
Q 1028 -1241 775 -1147 
L 775 -588 
Q 1028 -725 1275 -790 
Q 1522 -856 1778 -856 
Q 2344 -856 2625 -561 
Q 2906 -266 2906 331 
L 2906 616 
Q 2728 306 2450 153 
Q 2172 0 1784 0 
Q 1141 0 747 490 
Q 353 981 353 1791 
Q 353 2603 747 3093 
Q 1141 3584 1784 3584 
Q 2172 3584 2450 3431 
Q 2728 3278 2906 2969 
L 2906 3500 
L 3481 3500 
L 3481 434 
z
" transform="scale(0.015625)"/>
       <path id="DejaVuSans-51" d="M 3513 2113 
L 3513 0 
L 2938 0 
L 2938 2094 
Q 2938 2591 2744 2837 
Q 2550 3084 2163 3084 
Q 1697 3084 1428 2787 
Q 1159 2491 1159 1978 
L 1159 0 
L 581 0 
L 581 3500 
L 1159 3500 
L 1159 2956 
Q 1366 3272 1645 3428 
Q 1925 3584 2291 3584 
Q 2894 3584 3203 3211 
Q 3513 2838 3513 2113 
z
" transform="scale(0.015625)"/>
      </defs>
      <use xlink:href="#DejaVuSans-27"/>
      <use xlink:href="#DejaVuSans-4c" transform="translate(77 0)"/>
      <use xlink:href="#DejaVuSans-4a" transform="translate(104.78125 0)"/>
      <use xlink:href="#DejaVuSans-3" transform="translate(168.265625 0)"/>
      <use xlink:href="#DejaVuSans-27" transform="translate(200.046875 0)"/>
      <use xlink:href="#DejaVuSans-52" transform="translate(277.046875 0)"/>
      <use xlink:href="#DejaVuSans-5a" transform="translate(338.234375 0)"/>
      <use xlink:href="#DejaVuSans-51" transform="translate(420.015625 0)"/>
     </g>
    </g>
    <g id="PathCollection_9">
     <g>
      <use xlink:href="#m8670b44fb9" x="453.694531" y="41.840234" style="fill: #d4d4d8; fill-opacity: 0.65; stroke: #d4d4d8; stroke-opacity: 0.65; stroke-width: 0.6"/>
     </g>
    </g>
    <g id="text_17">
     <!-- Easy deal -->
     <g style="fill: #fafafa" transform="translate(466.294531 43.677734) scale(0.07 -0.07)">
      <defs>
       <path id="DejaVuSans-28" d="M 628 4666 
L 3578 4666 
L 3578 4134 
L 1259 4134 
L 1259 2753 
L 3481 2753 
L 3481 2222 
L 1259 2222 
L 1259 531 
L 3634 531 
L 3634 0 
L 628 0 
L 628 4666 
z
" transform="scale(0.015625)"/>
       <path id="DejaVuSans-5c" d="M 2059 -325 
Q 1816 -950 1584 -1140 
Q 1353 -1331 966 -1331 
L 506 -1331 
L 506 -850 
L 844 -850 
Q 1081 -850 1212 -737 
Q 1344 -625 1503 -206 
L 1606 56 
L 191 3500 
L 800 3500 
L 1894 763 
L 2988 3500 
L 3597 3500 
L 2059 -325 
z
" transform="scale(0.015625)"/>
      </defs>
      <use xlink:href="#DejaVuSans-28"/>
      <use xlink:href="#DejaVuSans-44" transform="translate(63.1875 0)"/>
      <use xlink:href="#DejaVuSans-56" transform="translate(124.46875 0)"/>
      <use xlink:href="#DejaVuSans-5c" transform="translate(176.5625 0)"/>
      <use xlink:href="#DejaVuSans-3" transform="translate(235.75 0)"/>
      <use xlink:href="#DejaVuSans-47" transform="translate(267.53125 0)"/>
      <use xlink:href="#DejaVuSans-48" transform="translate(331.015625 0)"/>
      <use xlink:href="#DejaVuSans-44" transform="translate(392.546875 0)"/>
      <use xlink:href="#DejaVuSans-4f" transform="translate(453.828125 0)"/>
     </g>
    </g>
    <g id="PathCollection_10">
     <g>
      <use xlink:href="#md55d9b82a5" x="453.694531" y="52.340781" style="fill: #a1a1aa; fill-opacity: 0.65; stroke: #a1a1aa; stroke-opacity: 0.65; stroke-width: 0.6"/>
     </g>
    </g>
    <g id="text_18">
     <!-- Egg -->
     <g style="fill: #fafafa" transform="translate(466.294531 54.178281) scale(0.07 -0.07)">
      <use xlink:href="#DejaVuSans-28"/>
      <use xlink:href="#DejaVuSans-4a" transform="translate(63.1875 0)"/>
      <use xlink:href="#DejaVuSans-4a" transform="translate(126.671875 0)"/>
     </g>
    </g>
    <g id="PathCollection_11">
     <g>
      <use xlink:href="#me675102fe5" x="453.694531" y="62.841328" style="fill: #916f6f; fill-opacity: 0.65; stroke: #916f6f; stroke-opacity: 0.65; stroke-width: 0.6"/>
     </g>
    </g>
    <g id="text_19">
     <!-- Exit -->
     <g style="fill: #fafafa" transform="translate(466.294531 64.678828) scale(0.07 -0.07)">
      <defs>
       <path id="DejaVuSans-5b" d="M 3513 3500 
L 2247 1797 
L 3578 0 
L 2900 0 
L 1881 1375 
L 863 0 
L 184 0 
L 1544 1831 
L 300 3500 
L 978 3500 
L 1906 2253 
L 2834 3500 
L 3513 3500 
z
" transform="scale(0.015625)"/>
      </defs>
      <use xlink:href="#DejaVuSans-28"/>
      <use xlink:href="#DejaVuSans-5b" transform="translate(63.1875 0)"/>
      <use xlink:href="#DejaVuSans-4c" transform="translate(122.375 0)"/>
      <use xlink:href="#DejaVuSans-57" transform="translate(150.15625 0)"/>
     </g>
    </g>
    <g id="PathCollection_12">
     <g>
      <use xlink:href="#m891a3e7052" x="453.694531" y="73.341875" style="fill: #b89090; fill-opacity: 0.65; stroke: #b89090; stroke-opacity: 0.65; stroke-width: 0.6"/>
     </g>
    </g>
    <g id="text_20">
     <!-- Hello Maze -->
     <g style="fill: #fafafa" transform="translate(466.294531 75.179375) scale(0.07 -0.07)">
      <defs>
       <path id="DejaVuSans-2b" d="M 628 4666 
L 1259 4666 
L 1259 2753 
L 3553 2753 
L 3553 4666 
L 4184 4666 
L 4184 0 
L 3553 0 
L 3553 2222 
L 1259 2222 
L 1259 0 
L 628 0 
L 628 4666 
z
" transform="scale(0.015625)"/>
      </defs>
      <use xlink:href="#DejaVuSans-2b"/>
      <use xlink:href="#DejaVuSans-48" transform="translate(75.203125 0)"/>
      <use xlink:href="#DejaVuSans-4f" transform="translate(136.734375 0)"/>
      <use xlink:href="#DejaVuSans-4f" transform="translate(164.515625 0)"/>
      <use xlink:href="#DejaVuSans-52" transform="translate(192.296875 0)"/>
      <use xlink:href="#DejaVuSans-3" transform="translate(253.484375 0)"/>
      <use xlink:href="#DejaVuSans-30" transform="translate(285.265625 0)"/>
      <use xlink:href="#DejaVuSans-44" transform="translate(371.546875 0)"/>
      <use xlink:href="#DejaVuSans-5d" transform="translate(432.828125 0)"/>
      <use xlink:href="#DejaVuSans-48" transform="translate(485.3125 0)"/>
     </g>
    </g>
    <g id="PathCollection_13">
     <g>
      <use xlink:href="#m70b2800c2e" x="453.694531" y="83.842422" style="fill: #999999; fill-opacity: 0.65; stroke: #999999; stroke-opacity: 0.65; stroke-width: 0.6"/>
     </g>
    </g>
    <g id="text_21">
     <!-- Loops -->
     <g style="fill: #fafafa" transform="translate(466.294531 85.679922) scale(0.07 -0.07)">
      <defs>
       <path id="DejaVuSans-2f" d="M 628 4666 
L 1259 4666 
L 1259 531 
L 3531 531 
L 3531 0 
L 628 0 
L 628 4666 
z
" transform="scale(0.015625)"/>
      </defs>
      <use xlink:href="#DejaVuSans-2f"/>
      <use xlink:href="#DejaVuSans-52" transform="translate(53.96875 0)"/>
      <use xlink:href="#DejaVuSans-52" transform="translate(115.15625 0)"/>
      <use xlink:href="#DejaVuSans-53" transform="translate(176.34375 0)"/>
      <use xlink:href="#DejaVuSans-56" transform="translate(239.828125 0)"/>
     </g>
    </g>
    <g id="PathCollection_14">
     <g>
      <use xlink:href="#m5dca93cdd8" x="453.694531" y="94.342969" style="fill: #71717a; fill-opacity: 0.65; stroke: #71717a; stroke-opacity: 0.65; stroke-width: 0.6"/>
     </g>
    </g>
    <g id="text_22">
     <!-- Michiel -->
     <g style="fill: #fafafa" transform="translate(466.294531 96.180469) scale(0.07 -0.07)">
      <defs>
       <path id="DejaVuSans-46" d="M 3122 3366 
L 3122 2828 
Q 2878 2963 2633 3030 
Q 2388 3097 2138 3097 
Q 1578 3097 1268 2742 
Q 959 2388 959 1747 
Q 959 1106 1268 751 
Q 1578 397 2138 397 
Q 2388 397 2633 464 
Q 2878 531 3122 666 
L 3122 134 
Q 2881 22 2623 -34 
Q 2366 -91 2075 -91 
Q 1284 -91 818 406 
Q 353 903 353 1747 
Q 353 2603 823 3093 
Q 1294 3584 2113 3584 
Q 2378 3584 2631 3529 
Q 2884 3475 3122 3366 
z
" transform="scale(0.015625)"/>
       <path id="DejaVuSans-4b" d="M 3513 2113 
L 3513 0 
L 2938 0 
L 2938 2094 
Q 2938 2591 2744 2837 
Q 2550 3084 2163 3084 
Q 1697 3084 1428 2787 
Q 1159 2491 1159 1978 
L 1159 0 
L 581 0 
L 581 4863 
L 1159 4863 
L 1159 2956 
Q 1366 3272 1645 3428 
Q 1925 3584 2291 3584 
Q 2894 3584 3203 3211 
Q 3513 2838 3513 2113 
z
" transform="scale(0.015625)"/>
      </defs>
      <use xlink:href="#DejaVuSans-30"/>
      <use xlink:href="#DejaVuSans-4c" transform="translate(86.28125 0)"/>
      <use xlink:href="#DejaVuSans-46" transform="translate(114.0625 0)"/>
      <use xlink:href="#DejaVuSans-4b" transform="translate(169.046875 0)"/>
      <use xlink:href="#DejaVuSans-4c" transform="translate(232.421875 0)"/>
      <use xlink:href="#DejaVuSans-48" transform="translate(260.203125 0)"/>
      <use xlink:href="#DejaVuSans-4f" transform="translate(321.734375 0)"/>
     </g>
    </g>
    <g id="line2d_14">
     <path d="M 446.694531 104.231016 
L 453.694531 104.231016 
L 460.694531 104.231016 
" style="fill: none; stroke-dasharray: 7.4,3.2; stroke-dashoffset: 0; stroke: #fafafa; stroke-width: 2"/>
    </g>
    <g id="text_23">
     <!-- overall trend (slope=0.7) -->
     <g style="fill: #fafafa" transform="translate(466.294531 106.681016) scale(0.07 -0.07)">
      <defs>
       <path id="DejaVuSans-59" d="M 191 3500 
L 800 3500 
L 1894 563 
L 2988 3500 
L 3597 3500 
L 2284 0 
L 1503 0 
L 191 3500 
z
" transform="scale(0.015625)"/>
       <path id="DejaVuSans-1a" d="M 525 4666 
L 3525 4666 
L 3525 4397 
L 1831 0 
L 1172 0 
L 2766 4134 
L 525 4134 
L 525 4666 
z
" transform="scale(0.015625)"/>
      </defs>
      <use xlink:href="#DejaVuSans-52"/>
      <use xlink:href="#DejaVuSans-59" transform="translate(61.1875 0)"/>
      <use xlink:href="#DejaVuSans-48" transform="translate(120.375 0)"/>
      <use xlink:href="#DejaVuSans-55" transform="translate(181.90625 0)"/>
      <use xlink:href="#DejaVuSans-44" transform="translate(223.015625 0)"/>
      <use xlink:href="#DejaVuSans-4f" transform="translate(284.296875 0)"/>
      <use xlink:href="#DejaVuSans-4f" transform="translate(312.078125 0)"/>
      <use xlink:href="#DejaVuSans-3" transform="translate(339.859375 0)"/>
      <use xlink:href="#DejaVuSans-57" transform="translate(371.640625 0)"/>
      <use xlink:href="#DejaVuSans-55" transform="translate(410.84375 0)"/>
      <use xlink:href="#DejaVuSans-48" transform="translate(449.75 0)"/>
      <use xlink:href="#DejaVuSans-51" transform="translate(511.28125 0)"/>
      <use xlink:href="#DejaVuSans-47" transform="translate(574.65625 0)"/>
      <use xlink:href="#DejaVuSans-3" transform="translate(638.140625 0)"/>
      <use xlink:href="#DejaVuSans-b" transform="translate(669.921875 0)"/>
      <use xlink:href="#DejaVuSans-56" transform="translate(708.9375 0)"/>
      <use xlink:href="#DejaVuSans-4f" transform="translate(761.03125 0)"/>
      <use xlink:href="#DejaVuSans-52" transform="translate(788.8125 0)"/>
      <use xlink:href="#DejaVuSans-53" transform="translate(850 0)"/>
      <use xlink:href="#DejaVuSans-48" transform="translate(913.484375 0)"/>
      <use xlink:href="#DejaVuSans-20" transform="translate(975.015625 0)"/>
      <use xlink:href="#DejaVuSans-13" transform="translate(1058.8125 0)"/>
      <use xlink:href="#DejaVuSans-11" transform="translate(1122.4375 0)"/>
      <use xlink:href="#DejaVuSans-1a" transform="translate(1154.21875 0)"/>
      <use xlink:href="#DejaVuSans-c" transform="translate(1217.84375 0)"/>
     </g>
    </g>
   </g>
  </g>
 </g>
 <defs>
  <clipPath id="p925344760d">
   <rect x="39.017031" y="21.558281" width="521.557656" height="294.198242"/>
  </clipPath>
 </defs>
</svg>
